<svg xmlns="http://www.w3.org/2000/svg" width="70.366" height="103.5" viewBox="0 0 70.366 103.5">
  <g id="design" transform="translate(-1487.055 -1873.837)">
    <path id="Subtraction_3" data-name="Subtraction 3" d="M44.417,100a40.513,40.513,0,0,1-6.85-.588A41.251,41.251,0,0,1,30.9,97.68a39.119,39.119,0,0,1-11.949-6.689c-.763-.629-1.5-1.285-2.182-1.949A55.068,55.068,0,0,1,2.924,67.808,49.76,49.76,0,0,1,.174,55.383a43.8,43.8,0,0,1,.713-12.7A63.579,63.579,0,0,1,11.043,20.3a61.8,61.8,0,0,1,17.7-17.026.012.012,0,0,1,0,0,.039.039,0,0,1,0,.007c.067-.038.15-.084.256-.142.247-.136.477-.253.7-.358l0,0h0a2.426,2.426,0,0,1,.27-.136.952.952,0,0,0,.483-.349A20.4,20.4,0,0,1,35.229.562,22.512,22.512,0,0,1,40.264,0,24.581,24.581,0,0,1,51.755,2.874a21.562,21.562,0,0,1,8.562,8.043,18.061,18.061,0,0,1,2.245,6.389,24.359,24.359,0,0,1,.035,6.729,49.3,49.3,0,0,1-3.868,13.087c-.433,1.086-.929,2.218-1.455,3.417C54.96,45.812,52.337,51.788,53.827,57c1.5,4.048,4.022,6.927,6.458,9.711A30.578,30.578,0,0,1,65.451,73.9,15.066,15.066,0,0,1,66.74,78.42a19.615,19.615,0,0,1-.189,5.711,16.694,16.694,0,0,1-6.1,11.075,23.822,23.822,0,0,1-12.013,4.587A39.042,39.042,0,0,1,44.417,100ZM38.612,70.434a11.742,11.742,0,0,0-9.076,4.325A11.514,11.514,0,0,0,30.87,90.965a11.008,11.008,0,0,0,7.082,2.528,11.888,11.888,0,0,0,11.758-12.8,11.1,11.1,0,0,0-11.1-10.258ZM25.538,41.74h0a11.888,11.888,0,0,0-11.756,12.8A11.1,11.1,0,0,0,24.88,64.8a11.742,11.742,0,0,0,9.076-4.325,11.513,11.513,0,0,0-1.334-16.205,11.01,11.01,0,0,0-7.083-2.529Zm13.2-29.959a11.741,11.741,0,0,0-9.076,4.325A11.514,11.514,0,0,0,31,32.312a11.012,11.012,0,0,0,7.082,2.528,11.887,11.887,0,0,0,11.758-12.8,11.1,11.1,0,0,0-11.1-10.259Z" transform="translate(1487.054 1877.336)" fill="#faa916"/>
    <path id="Subtraction_4" data-name="Subtraction 4" d="M44.417,100a40.513,40.513,0,0,1-6.85-.588A41.251,41.251,0,0,1,30.9,97.68a39.119,39.119,0,0,1-11.949-6.689c-.763-.629-1.5-1.285-2.182-1.949A55.068,55.068,0,0,1,2.924,67.808,49.76,49.76,0,0,1,.174,55.383a43.8,43.8,0,0,1,.713-12.7A63.579,63.579,0,0,1,11.043,20.3a61.8,61.8,0,0,1,17.7-17.026.012.012,0,0,1,0,0,.039.039,0,0,1,0,.007c.067-.038.15-.084.256-.142.247-.136.477-.253.7-.358l0,0h0a2.426,2.426,0,0,1,.27-.136.952.952,0,0,0,.483-.349A20.4,20.4,0,0,1,35.229.562,22.512,22.512,0,0,1,40.264,0,24.581,24.581,0,0,1,51.755,2.874a21.562,21.562,0,0,1,8.562,8.043,18.061,18.061,0,0,1,2.245,6.389,24.359,24.359,0,0,1,.035,6.729,49.3,49.3,0,0,1-3.868,13.087c-.433,1.086-.929,2.218-1.455,3.417C54.96,45.812,52.337,51.788,53.827,57c1.5,4.048,4.022,6.927,6.458,9.711A30.578,30.578,0,0,1,65.451,73.9,15.066,15.066,0,0,1,66.74,78.42a19.615,19.615,0,0,1-.189,5.711,16.694,16.694,0,0,1-6.1,11.075,23.822,23.822,0,0,1-12.013,4.587A39.042,39.042,0,0,1,44.417,100ZM38.612,70.434a11.742,11.742,0,0,0-9.076,4.325A11.514,11.514,0,0,0,30.87,90.965a11.008,11.008,0,0,0,7.082,2.528,11.888,11.888,0,0,0,11.758-12.8,11.1,11.1,0,0,0-11.1-10.258ZM25.538,41.74h0a11.888,11.888,0,0,0-11.756,12.8A11.1,11.1,0,0,0,24.88,64.8a11.742,11.742,0,0,0,9.076-4.325,11.513,11.513,0,0,0-1.334-16.205,11.01,11.01,0,0,0-7.083-2.529Zm13.2-29.959a11.741,11.741,0,0,0-9.076,4.325A11.514,11.514,0,0,0,31,32.312a11.012,11.012,0,0,0,7.082,2.528,11.887,11.887,0,0,0,11.758-12.8,11.1,11.1,0,0,0-11.1-10.259Z" transform="translate(1490.054 1874.336)" fill="none" stroke="#1b1b1e" stroke-width="1"/>
  </g>
</svg>
