<svg xmlns="http://www.w3.org/2000/svg" xmlns:xlink="http://www.w3.org/1999/xlink" width="266.688" height="266.688" viewBox="0 0 266.688 266.688">
  <defs>
    <clipPath id="clip-path">
      <rect id="Rectangle_38" data-name="Rectangle 38" width="266.688" height="266.688" transform="translate(2.8 2.8)" fill="#fff"/>
    </clipPath>
  </defs>
  <g id="developer.5be4b61" transform="translate(-2.8 -2.8)" clip-path="url(#clip-path)">
    <path id="Path_219" data-name="Path 219" d="M136.144,269.488A133.344,133.344,0,1,0,2.8,136.144,133.344,133.344,0,0,0,136.144,269.488Z" transform="translate(0 0)" fill="#eaeaea"/>
    <path id="Path_220" data-name="Path 220" d="M38.832,95.872,9.707,85.38a2.54,2.54,0,0,1-1.529-3.25L22.921,41.205a2.54,2.54,0,0,1,3.25-1.529L55.3,50.169a2.54,2.54,0,0,1,1.529,3.25L42.082,94.344A2.538,2.538,0,0,1,38.832,95.872Z" transform="translate(9.115 64.038)" fill="#6d676e"/>
    <path id="Path_221" data-name="Path 221" d="M38.419,95.014,9.294,84.522a2.54,2.54,0,0,1-1.529-3.25L22.509,40.347a2.54,2.54,0,0,1,3.25-1.529L54.884,49.311a2.54,2.54,0,0,1,1.529,3.25L41.67,93.485A2.542,2.542,0,0,1,38.419,95.014Z" transform="translate(8.395 62.542)" fill="#fbfffe" stroke="#000" stroke-miterlimit="10" stroke-width="0.093"/>
    <path id="Path_222" data-name="Path 222" d="M13.823,39.524l1.888,4.016" transform="translate(19.222 64.036)" fill="none" stroke="#000" stroke-linecap="round" stroke-linejoin="round" stroke-miterlimit="10" stroke-width="0.093"/>
    <path id="Path_223" data-name="Path 223" d="M17.444,39.909,13.429,41.8" transform="translate(18.534 64.708)" fill="none" stroke="#000" stroke-linecap="round" stroke-linejoin="round" stroke-miterlimit="10" stroke-width="0.093"/>
    <path id="Path_224" data-name="Path 224" d="M25.794,47.344,14.253,57.092" transform="translate(19.971 77.671)" fill="none" stroke="#000" stroke-linecap="round" stroke-linejoin="round" stroke-miterlimit="10" stroke-width="0.463"/>
    <path id="Path_225" data-name="Path 225" d="M18.082,55.944,23.1,53.6l-2.363-5.025" transform="translate(26.648 79.815)" fill="none" stroke="#000" stroke-linecap="round" stroke-linejoin="round" stroke-miterlimit="10" stroke-width="0.463"/>
    <path id="Path_226" data-name="Path 226" d="M15.167,54.352,12.8,49.344l5.025-2.363" transform="translate(17.434 77.039)" fill="none" stroke="#000" stroke-linecap="round" stroke-linejoin="round" stroke-miterlimit="10" stroke-width="0.463"/>
    <path id="Path_227" data-name="Path 227" d="M67.05,94.885l-30.49,5.355a2.54,2.54,0,0,1-2.941-2.062l-11.607-66.1a2.54,2.54,0,0,1,2.062-2.941l30.49-5.355A2.54,2.54,0,0,1,57.5,25.844l11.608,66.1A2.542,2.542,0,0,1,67.05,94.885Z" transform="translate(33.432 36.518)" fill="#96031a"/>
    <path id="Path_228" data-name="Path 228" d="M66.355,94.317l-30.49,5.355a2.54,2.54,0,0,1-2.941-2.062L21.315,31.51a2.54,2.54,0,0,1,2.062-2.941l30.49-5.355a2.54,2.54,0,0,1,2.941,2.062l11.608,66.1A2.54,2.54,0,0,1,66.355,94.317Z" transform="translate(32.218 35.529)" fill="#fbfffe" stroke="#000" stroke-miterlimit="10" stroke-width="0.093"/>
    <path id="Path_229" data-name="Path 229" d="M22.234,25.871l3.635,2.549" transform="translate(33.888 40.229)" fill="none" stroke="#000" stroke-linecap="round" stroke-linejoin="round" stroke-miterlimit="10" stroke-width="0.093"/>
    <path id="Path_230" data-name="Path 230" d="M24.972,25.674l-2.548,3.633" transform="translate(34.22 39.886)" fill="none" stroke="#000" stroke-linecap="round" stroke-linejoin="round" stroke-miterlimit="10" stroke-width="0.093"/>
    <path id="Path_231" data-name="Path 231" d="M37.619,77.965l-.782.137a1.9,1.9,0,0,1-2.2-1.544L32.148,62.4a6.98,6.98,0,0,0-4.09-5.194,10.639,10.639,0,0,0,1.779-7.966L26.555,30.553a1.9,1.9,0,0,1,1.544-2.2l.782-.137" transform="translate(41.372 44.314)" fill="none" stroke="#000" stroke-linecap="round" stroke-linejoin="round" stroke-miterlimit="10" stroke-width="0.463"/>
    <path id="Path_232" data-name="Path 232" d="M37.916,77.755l.782-.137a1.9,1.9,0,0,0,1.544-2.2L37.756,61.257a6.983,6.983,0,0,1,2.076-6.277A10.642,10.642,0,0,1,35.444,48.1L32.163,29.411a1.9,1.9,0,0,0-2.2-1.544L29.179,28" transform="translate(45.997 43.659)" fill="none" stroke="#000" stroke-linecap="round" stroke-linejoin="round" stroke-miterlimit="10" stroke-width="0.463"/>
    <path id="Path_233" data-name="Path 233" d="M82.387,85.374,20.869,88.7A2.54,2.54,0,0,1,18.2,86.3l-1.33-24.568a2.54,2.54,0,0,1,2.4-2.673l61.519-3.328a2.54,2.54,0,0,1,2.673,2.4L84.786,82.7A2.539,2.539,0,0,1,82.387,85.374Z" transform="translate(24.521 92.294)" fill="#1b1b1e"/>
    <path id="Path_234" data-name="Path 234" d="M81.548,84.621,20.029,87.949a2.539,2.539,0,0,1-2.673-2.4l-1.33-24.568a2.54,2.54,0,0,1,2.4-2.673L79.944,54.98a2.539,2.539,0,0,1,2.673,2.4l1.33,24.568A2.54,2.54,0,0,1,81.548,84.621Z" transform="translate(23.056 90.981)" fill="#fbfffe" stroke="#000" stroke-miterlimit="10" stroke-width="0.093"/>
    <path id="Path_235" data-name="Path 235" d="M17.033,57.128l3.3,2.964" transform="translate(24.819 94.732)" fill="none" stroke="#000" stroke-linecap="round" stroke-linejoin="round" stroke-miterlimit="10" stroke-width="0.093"/>
    <path id="Path_236" data-name="Path 236" d="M20.052,57.066l-2.964,3.3" transform="translate(24.914 94.625)" fill="none" stroke="#000" stroke-linecap="round" stroke-linejoin="round" stroke-miterlimit="10" stroke-width="0.093"/>
    <path id="Path_237" data-name="Path 237" d="M30.79,72.273a6.725,6.725,0,0,0,5.2-2.824l-2.04-1.578a4.353,4.353,0,0,1-3.294,1.886,4.023,4.023,0,0,1-4.3-4.074c-.145-2.686,1.5-4.483,3.792-4.607A4.3,4.3,0,0,1,33.625,62.6L35.5,60.844a6.9,6.9,0,0,0-5.493-2.3c-4.351.235-6.643,3.452-6.436,7.292C23.813,70.26,27.044,72.476,30.79,72.273Z" transform="translate(36.201 97.18)"/>
    <path id="Path_238" data-name="Path 238" d="M29.746,59.109l.4,7.444" transform="translate(46.986 98.186)" fill="none" stroke="#000" stroke-linecap="round" stroke-linejoin="round" stroke-miterlimit="10" stroke-width="0.463"/>
    <path id="Path_239" data-name="Path 239" d="M35.883,60.37l-7.444.4" transform="translate(44.706 100.385)" fill="none" stroke="#000" stroke-linecap="round" stroke-linejoin="round" stroke-miterlimit="10" stroke-width="0.463"/>
    <path id="Path_240" data-name="Path 240" d="M33,58.933l.4,7.444" transform="translate(52.653 97.88)" fill="none" stroke="#000" stroke-linecap="round" stroke-linejoin="round" stroke-miterlimit="10" stroke-width="0.463"/>
    <path id="Path_241" data-name="Path 241" d="M39.133,60.195l-7.444.4" transform="translate(50.373 100.08)" fill="none" stroke="#000" stroke-linecap="round" stroke-linejoin="round" stroke-miterlimit="10" stroke-width="0.463"/>
    <path id="Path_242" data-name="Path 242" d="M136.491,31.339s14-6.563,11.052,9.191-16.956,41.005-16.956,41.005,6.635,8.875,3.709,16.292-8.609,13.28-21.228,15.4c0,0-8.985,9.227-9.436,19.58s0,20.03,0,20.03,19.8-9.142,36.684.717,31.733,19.312,43.886,83.679l-130.243,5.4L83.18,24.776Z" transform="translate(89.206 38.32)" fill="#faa916"/>
    <path id="Path_243" data-name="Path 243" d="M85.415,48.215a.325.325,0,0,1,0,.07.382.382,0,0,1-.013.051.185.185,0,0,1-.01.024c0,.009-.007.016-.011.024a.354.354,0,0,1-.032.046.21.21,0,0,1-.023.024.445.445,0,0,1-.079.058,38.946,38.946,0,0,0-5.8,4.123q-.291.257-.573.524l-.149.142c-.1.1-.2.192-.295.289q-.594.594-1.14,1.236c-.072.085-.145.171-.216.259-.142.174-.282.352-.419.531a6.334,6.334,0,0,0-1.1,1.975c0,.006,0,.013,0,.018a.314.314,0,0,1,.007.035c0,.007,0,.012,0,.018a.317.317,0,0,1-.038.177.455.455,0,0,1-.055.075.4.4,0,0,1-.286.124.311.311,0,0,1-.226-.093.243.243,0,0,1-.03-.035c-.005-.006-.009-.014-.014-.02a.111.111,0,0,1-.013-.022c.006-.06.014-.118.024-.178s.023-.133.038-.2c.009-.044.021-.09.031-.135.016-.067.034-.134.055-.2.014-.046.027-.09.042-.136s.03-.09.047-.136a6.212,6.212,0,0,1,.367-.815c.024-.046.05-.09.075-.136s.052-.09.079-.136l.075-.123q.112-.185.24-.37c.018-.027.037-.055.057-.081.114-.164.236-.328.363-.49l.065-.081c.043-.055.086-.109.132-.162s.09-.108.136-.163q.293-.345.618-.685l.1-.109c.106-.109.215-.218.324-.326.029-.029.06-.058.089-.086l.179-.173c.061-.057.121-.114.183-.171A43.831,43.831,0,0,1,84.9,47.907a.44.44,0,0,1,.066-.03A.216.216,0,0,1,85,47.866l.009,0a.312.312,0,0,1,.108,0,.277.277,0,0,1,.046.012.249.249,0,0,1,.029.01.285.285,0,0,1,.053.029.365.365,0,0,1,.048.038.409.409,0,0,1,.075.093.476.476,0,0,1,.023.044c.005.012.009.024.014.036s.006.023.009.034,0,.013,0,.018A.118.118,0,0,0,85.415,48.215Z" transform="translate(125.724 78.566)"/>
    <path id="Path_244" data-name="Path 244" d="M78.2,53.429a.351.351,0,0,1,.008.173.217.217,0,0,1-.009.032.29.29,0,0,1-.013.03.106.106,0,0,1-.009.016.333.333,0,0,1-.033.048.187.187,0,0,1-.02.021.4.4,0,0,1-.277.113.325.325,0,0,1-.233-.092.2.2,0,0,1-.023-.027.069.069,0,0,1-.015-.023.23.23,0,0,1-.014-.023.1.1,0,0,1-.009-.017.063.063,0,0,1-.006-.016.368.368,0,0,1-.018-.049c-.328-1.13-.735-2.18-1.077-3.265-.056-.177-.109-.353-.161-.531a.352.352,0,0,1,.349-.349.51.51,0,0,1,.385.356,7.751,7.751,0,0,0,.276.857C77.612,51.591,77.907,52.509,78.2,53.429Z" transform="translate(128.142 81.379)"/>
    <path id="Path_245" data-name="Path 245" d="M60.409,42.815a.517.517,0,0,1,.015.2c0,.013,0,.025,0,.037s0,.024,0,.037v0c0,.013-.005.027-.007.039-.01.055-.024.112-.042.173-.009.03-.018.061-.029.093l-.015.048c-.014.041-.029.081-.044.125-.009.025-.019.051-.029.077s-.02.051-.032.077c-.021.052-.044.106-.067.159-.035.08-.074.164-.113.246l-.08.168-.03.061-.093.185-.062.123-.126.245c-.02.041-.042.081-.062.121l-.121.235-.039.077c-.027.052-.052.1-.076.151-.033.066-.064.13-.093.19-.01.022-.02.042-.029.062-.019.041-.038.081-.055.119-.006.015-.014.03-.019.046s-.024.057-.034.085-.02.053-.029.077a.392.392,0,0,0-.013.037c0,.01-.006.02-.01.03a.028.028,0,0,0,0,0c0,.012-.006.022-.009.032s-.01.041-.013.058c-1.453,3.381-2.559,6.9-3.778,10.367-1.05,3.358-2.774,6.705-2.647,10.281a2.473,2.473,0,0,0,.038.315c.009.051.02.1.033.147s.027.1.042.141.032.092.051.135l.019.044a.553.553,0,0,0,.024.053c.006.014.014.028.021.042l.015.032c.014.027.029.055.046.081a2.006,2.006,0,0,0,.3.4,3.1,3.1,0,0,0,3.5.389l.027,0a.118.118,0,0,0,.027-.006.967.967,0,0,0,.114-.036c.019-.006.039-.015.06-.024l.03-.014.072-.034a.18.18,0,0,0,.023-.012,6.071,6.071,0,0,0,.548-.334l.071-.047.071-.047.072-.047c.084-.055.167-.108.249-.157l.07-.042.034-.02c.023-.014.046-.027.069-.038a1.816,1.816,0,0,1,.324-.145l.029-.009a.58.58,0,0,1,.058-.015l.028,0a.077.077,0,0,1,.019,0l.024,0c.013,0,.025,0,.038,0H58.8a.342.342,0,0,1,.254.1l.014.014a.368.368,0,0,1,.02.057.063.063,0,0,1,0,.006v0a.317.317,0,0,1,.006.06.349.349,0,0,1-.015.1c-.005.016-.012.033-.018.05a.467.467,0,0,1-.026.049.246.246,0,0,1-.015.026c-.014.021-.029.043-.044.063s-.034.043-.055.065-.033.036-.05.052a.07.07,0,0,0-.01.01.009.009,0,0,0,0,.005.01.01,0,0,0-.005,0,8.092,8.092,0,0,1-3.671,1.464.59.59,0,0,1-.116-.009,3.631,3.631,0,0,1-2.314-.936l-.048-.048-.027-.028c-.034-.037-.066-.074-.1-.112l-.052-.065s0,0,0,0l-.048-.065-.048-.069c-.023-.034-.046-.07-.067-.107-.012-.018-.022-.036-.032-.055a2.9,2.9,0,0,1-.146-.287l-.023-.053c-.006-.014-.012-.027-.016-.041s-.014-.033-.019-.049q-.033-.084-.061-.171c-.009-.025-.016-.052-.024-.079a.021.021,0,0,1,0-.009c-.006-.024-.014-.047-.02-.071a.113.113,0,0,1-.005-.021c-.014-.052-.027-.105-.039-.16-.006-.029-.013-.058-.018-.088s-.01-.051-.014-.076l-.008-.042c0-.02-.006-.039-.01-.06v0c-.009-.058-.016-.118-.024-.179,0-.03-.006-.061-.01-.093s-.006-.062-.009-.092c-.005-.064-.009-.126-.012-.189s0-.128-.006-.193a8.479,8.479,0,0,1,.1-1.328c.024-.169.053-.34.085-.512s.064-.323.1-.485c.024-.109.05-.217.075-.325l.061-.245c.021-.081.042-.164.064-.245.093-.348.2-.7.3-1.039.014-.043.027-.086.041-.128.027-.085.055-.17.081-.255s.055-.169.083-.253c.042-.126.084-.25.124-.373l.084-.245c.028-.081.055-.161.083-.241s.055-.159.081-.237.055-.156.08-.232c.014-.038.027-.076.039-.114.039-.113.079-.226.116-.335.151-.439.288-.846.394-1.2.09-.255.182-.51.272-.764q.123-.351.246-.7l.171-.49q.256-.733.509-1.469.221-.636.44-1.274.135-.393.271-.784t.272-.784q.364-1.044.733-2.087,1.015-2.9,2.3-5.685l.024-.032a.28.28,0,0,0,.022-.032,1.855,1.855,0,0,0,.143-.288c.013-.029.026-.06.037-.09q.044-.11.088-.229c0-.014.011-.028.015-.043s.019-.051.028-.076a.4.4,0,0,0,.014-.038c.01-.025.019-.051.029-.077.019-.051.04-.1.06-.152a1.9,1.9,0,0,1,.354-.619.373.373,0,0,1,.405-.11.2.2,0,0,1,.063.041l.019.02a.094.094,0,0,1,.013.018.249.249,0,0,1,.02.038A.117.117,0,0,1,60.409,42.815Z" transform="translate(85.555 69.485)"/>
    <path id="Path_246" data-name="Path 246" d="M60.629,40.4a.452.452,0,0,1,.014.13v.013a.322.322,0,0,1,0,.036l0,.019a.034.034,0,0,1,0,.01l-.008.029c-.005.015-.012.03-.018.046a.456.456,0,0,1-.029.05.427.427,0,0,1-.038.043l-.012.012-.011.009-.005,0a.163.163,0,0,1-.026.016l-.02.012a.217.217,0,0,1-.044.019l-.024.008a.17.17,0,0,1-.025.006.425.425,0,0,1-.129-.016.318.318,0,0,1-.037-.013c-.342-.131-.486-.663-.854-.826A7.857,7.857,0,0,0,57,38.688a8.545,8.545,0,0,0-.932-.272c-.081-.019-.162-.037-.244-.052l-.224-.043-.157-.026-.133-.02-.154-.02-.212-.024c-.058,0-.116-.012-.174-.015s-.14-.011-.21-.015l-.178-.009a9.606,9.606,0,0,0-2.279.179c-.077.015-.155.032-.231.05q-.465.1-.917.254c-.113.037-.225.078-.335.118l-.1.039-.022.009c-.124.048-.247.1-.37.154l-.161.074-.108.051c-.178.085-.352.177-.523.273l-.077.044c-.026.014-.051.029-.076.044q-.076.044-.153.091c-.049.03-.1.062-.15.1l-.147.1c-.066.043-.13.089-.193.135s-.119.086-.178.131l-.122.094c-.121.1-.239.193-.354.3-.029.025-.058.051-.086.077s-.057.052-.086.079-.057.053-.084.08c-.084.081-.166.164-.246.249-.055.057-.107.113-.159.171l-.012.01a.046.046,0,0,0-.013.01.135.135,0,0,0-.024.023.229.229,0,0,0-.026.024.489.489,0,0,0-.049.055c-.016.019-.034.041-.051.062s-.037.048-.055.075a.253.253,0,0,0-.018.027l-.037.053c-.043.064-.085.133-.128.206-.019.03-.038.062-.056.1s-.034.06-.052.09l-.1.183c-.018.03-.036.061-.052.092-.038.067-.077.133-.116.2-.02.032-.039.065-.058.1s-.027.042-.039.062-.027.041-.04.061a2.281,2.281,0,0,1-.279.356.5.5,0,0,1-.333.174h0a.271.271,0,0,1-.079-.012l-.027-.009a.29.29,0,0,1-.118-.159.487.487,0,0,1-.015-.185c0-.01,0-.021,0-.032a.036.036,0,0,1,0-.013.366.366,0,0,1,.006-.042c0-.014,0-.027.009-.041a1.258,1.258,0,0,1,.048-.159c.006-.015.012-.032.018-.048a3.025,3.025,0,0,1,.2-.4c.013-.023.026-.044.04-.066q.034-.057.072-.118c.038-.061.078-.122.122-.185l.079-.113c.049-.071.1-.142.158-.213s.11-.143.168-.216c.038-.048.077-.1.117-.142.1-.118.2-.236.3-.351l.061-.068c.061-.069.123-.135.185-.2.168-.176.334-.342.49-.488l.107-.1.123-.109.039-.034c.071-.06.139-.114.2-.162.014-.012.029-.022.043-.032l.044-.032c.032-.022.061-.042.089-.058l.032-.019a.715.715,0,0,1,.131-.063c.105-.066.212-.131.32-.193l.064-.037c.043-.026.088-.05.132-.074l.07-.038c.079-.043.159-.085.24-.127l.127-.064.259-.123c.043-.02.086-.039.131-.058.232-.1.47-.2.71-.286.119-.043.24-.085.362-.125a10.852,10.852,0,0,1,4.07-.523c.105.008.211.017.316.027l.134.014c.065.007.13.015.195.024l.03,0,.188.028.147.024.179.033.154.032c.122.026.243.055.362.085l.142.038c.066.018.133.037.2.057l.1.03.067.021.071.023a7.776,7.776,0,0,1,3.443,2.271.451.451,0,0,1,.079.134A.346.346,0,0,0,60.629,40.4Z" transform="translate(74.349 60.491)"/>
    <path id="Path_247" data-name="Path 247" d="M54.013,47.41c0,.084,0,.169,0,.254s0,.169,0,.254c0,.126-.006.252-.011.376,0,.083-.008.165-.013.248-.008.123-.016.245-.027.367,0,.039-.006.077-.01.117-.008.081-.016.163-.026.243,0,.038-.009.075-.013.113-.01.082-.02.161-.032.241-.007.057-.016.113-.025.169-.018.112-.037.222-.056.333s-.041.217-.063.324q-.063.3-.137.578c-.026.094-.051.185-.077.277l-.041.136c-.028.09-.057.179-.086.265-.044.131-.092.259-.14.384-.033.083-.066.164-.1.244s-.07.157-.105.235-.072.152-.111.225-.076.145-.115.216-.079.139-.119.2c-.02.034-.041.066-.061.1-.042.065-.084.127-.127.188s-.086.121-.131.177l-.067.085c-.044.056-.09.109-.136.16s-.092.1-.141.149a2.049,2.049,0,0,1-3.157,0,4.246,4.246,0,0,1-.474-.572c-.015-.022-.031-.043-.046-.066-.05-.072-.1-.147-.145-.225l-.047-.078a7.253,7.253,0,0,1-.428-.861l-.038-.094c-.025-.064-.051-.127-.075-.192s-.048-.131-.072-.2l-.03-.089c-.048-.141-.093-.284-.136-.432-.009-.033-.019-.066-.028-.1-.02-.071-.039-.143-.058-.216-.009-.037-.019-.074-.028-.111s-.014-.058-.021-.089c-.022-.089-.041-.176-.061-.268-.009-.039-.017-.079-.026-.119s-.019-.1-.029-.147c-.022-.113-.042-.229-.061-.345-.006-.035-.011-.071-.016-.106s-.011-.072-.015-.109-.009-.061-.013-.09-.011-.081-.016-.122-.011-.1-.018-.145-.011-.1-.018-.157-.012-.1-.015-.156v-.005c0-.037-.006-.074-.009-.11s-.005-.056-.006-.084-.007-.084-.009-.126-.006-.1-.01-.151a.125.125,0,0,0,0-.02c0-.052-.005-.1-.008-.155,0-.034,0-.07-.005-.1,0-.014,0-.027,0-.041,0-.041,0-.082,0-.122,0-.079,0-.159-.005-.239,0-.053,0-.108,0-.161s0-.108,0-.161c0-.08,0-.16.005-.239,0-.041,0-.081,0-.122,0-.013,0-.027,0-.04,0-.035,0-.07.005-.105,0-.052,0-.1.008-.155a.123.123,0,0,1,0-.02c0-.051.006-.1.01-.151s.006-.084.009-.126,0-.056.006-.084.006-.074.009-.111v0c.005-.052.01-.1.015-.156s.011-.106.018-.157.012-.1.018-.145.01-.081.016-.122.009-.061.013-.09.01-.072.015-.109.012-.071.016-.107c.018-.117.038-.231.061-.345.009-.049.019-.1.029-.147s.016-.08.026-.119c.019-.09.039-.179.061-.268.006-.029.014-.058.021-.089s.018-.074.028-.11c.018-.072.038-.145.058-.216.009-.033.019-.066.028-.1.043-.147.088-.292.136-.432l.03-.089c.023-.066.047-.132.072-.2s.05-.128.075-.192l.038-.094a6.877,6.877,0,0,1,.428-.861c.015-.027.032-.052.047-.077.047-.078.1-.153.145-.225.015-.022.029-.044.046-.066a4.312,4.312,0,0,1,.474-.572,2.048,2.048,0,0,1,3.157,0c.047.048.094.1.141.149s.092.1.136.16l.067.085c.044.057.088.116.131.176s.085.125.127.188l.061.1c.041.066.08.135.119.2s.077.142.115.216.075.149.111.225.071.155.105.235.067.161.1.244c.048.124.1.251.14.383.029.088.058.177.086.266.014.046.028.09.041.136.027.091.052.184.077.277.049.188.1.381.137.578.023.107.043.216.063.324s.038.22.056.333c.009.056.016.112.025.169.012.08.022.16.032.241.005.038.009.075.013.113.009.08.018.161.026.243,0,.04.006.077.01.117.01.121.02.243.027.367.005.081.009.165.013.247C54.007,47.159,54.01,47.285,54.013,47.41Z" transform="translate(76.915 65.772)"/>
    <path id="Path_248" data-name="Path 248" d="M60.909,37.8l-.076.066-.088.075c-.028.025-.056.049-.083.075l-.076.072-.009.009c-.023.023-.046.046-.068.069l-.015.016-.065.07-.024.027c-.018.02-.036.041-.052.061s-.048.057-.071.086c-.071.086-.139.175-.2.265l-.052.074c-.044.064-.089.128-.132.193l-.035.055c-.051.077-.1.156-.15.234,0,0,0-.006,0-.009h0c0-.014,0-.029,0-.043l0-.012a.367.367,0,0,1,0,.067l-.057.091c-.034.055-.069.111-.1.165-1.293.187.141-1.557.523-1.878.148-.136.3-.272.457-.405.046-.04.091-.079.138-.117A5.377,5.377,0,0,0,60.909,37.8Z" transform="translate(98.03 59.83)" fill="#fff"/>
    <path id="Path_249" data-name="Path 249" d="M100.489,73.978a16.264,16.264,0,0,1-.046,3.105c-.105.419-.22.838-.344,1.254,0-.031-.008-.062-.013-.093-.046-.185-.174-1.056-.363-2.012,0,.009,0,.018,0,.027.185.946.312,1.8.357,1.985.005.034.009.069.014.1a30.942,30.942,0,0,1-4.9,9.6,61.46,61.46,0,0,1-8.11,8.2,37.039,37.039,0,0,1-13.841,6.639,19.936,19.936,0,0,1-11.361-.714c.113-.111.224-.22.329-.329,0,0,0,0,0-.005-.107.111-.218.222-.333.333a13.327,13.327,0,0,1-6.56-5.242c-2.889-5.3-2.081-11.912-.608-17.544a.323.323,0,0,0,.037-.083l.248.032a.54.54,0,0,1,.058-.094.484.484,0,0,0,.38.189,32.868,32.868,0,0,0-.989,11.442,13.52,13.52,0,0,0,1.265,5.462c3.72,5.3,10.853,6.252,16.852,5.486,7.725-.569,13.629-6.15,19.049-11.148,4.024-3.5,7.064-8.37,7.456-13.752a1.737,1.737,0,0,0,.016-.49c.018-.376.018-.728.051-.886-.035-.269.081-.823.028-1.214.271-.107.569-.32.753-.4a2.436,2.436,0,0,1,.5-.271A2.4,2.4,0,0,1,100.489,73.978Z" transform="translate(88.195 123.383)" fill="#fff"/>
    <path id="Path_250" data-name="Path 250" d="M227.353,149.332c-.01-.044-.021-.089-.032-.132q-.183-.751-.371-1.5c-.083-.333-.166-.667-.25-1s-.168-.666-.253-1c-.042-.167-.084-.333-.127-.5l-.251-.986c-.578-2.249-1.163-4.5-1.735-6.747q-.07-.274-.138-.548-.278-1.1-.549-2.194c0-.015,0-.029,0-.044a.25.25,0,0,1,0-.032c0-.01,0-.02,0-.029a.253.253,0,0,1,.008-.032c0-.008.005-.015.008-.024a.2.2,0,0,1,.01-.026c.009-.016.018-.032.028-.047a.057.057,0,0,1,.014-.016l0-.005a165.322,165.322,0,0,0-5.152-16.522,109.882,109.882,0,0,0-14.508-27.32q-.591-.849-1.21-1.67l-.154-.2q-.383-.5-.779-.995l-.15-.185-.175-.215q-.929-1.132-1.914-2.2c-.06-.065-.119-.13-.18-.193l-.214-.227c-.063-.069-.128-.136-.193-.2l-.008-.009-.19-.2-.01-.012c-.066-.067-.132-.134-.2-.2l-.2-.2c-.052-.052-.1-.105-.158-.157-.082-.083-.166-.165-.249-.246l-.184-.179-.048-.047-.17-.164-.025-.024-.19-.182c-.069-.066-.138-.131-.208-.2l-.21-.195-.209-.193q-.842-.768-1.717-1.486l-.175-.144q-.461-.375-.93-.735l-.179-.137-.148-.112-.236-.176c-.057-.043-.113-.085-.171-.127s-.1-.07-.142-.1l-.057-.041-.17-.123q-.33-.238-.667-.47c-.077-.055-.155-.107-.232-.16l-.206-.14q-.507-.341-1.022-.667c-.083-.052-.165-.1-.249-.155-.269-.168-.54-.331-.814-.493l-.19-.112-.234-.136c-.1-.058-.206-.118-.31-.175-.055-.032-.111-.062-.165-.093l-.19-.1-.2-.108-.1-.056-.14-.075-.2-.1-.251-.131-.014-.007c-.072-.038-.145-.075-.218-.112l-.362-.182c-.084-.041-.167-.082-.25-.122l-.25-.121-.255-.12-.249-.116q-.3-.137-.595-.268l-.423-.184-.243-.1-.271-.112-.184-.075c-.111-.046-.222-.089-.333-.132l-.259-.1c-.1-.038-.2-.077-.3-.114l-.2-.075-.038-.014-.185-.067q-.457-.166-.92-.319l-.173-.057c-.164-.053-.328-.107-.493-.158l-.16-.049-.166-.051c-.132-.041-.264-.079-.4-.118s-.266-.076-.4-.113q-.274-.076-.55-.149t-.522-.133c-.188-.047-.378-.091-.568-.136l-.216-.049q-.173-.04-.347-.076l-.23-.048-.061-.013-.213-.043-.056-.011-.222-.043-.071-.014-.2-.038-.081-.015-.193-.034c-.081-.015-.161-.029-.243-.042l-.178-.029-.16-.027c-.081-.014-.162-.027-.245-.038l-.154-.023-.184-.027-.282-.039c-.114-.015-.23-.032-.345-.046-.162-.02-.325-.041-.489-.06l-.3-.033-.27-.028-.238-.023-.162-.015q-.229-.021-.457-.038l-.152-.012-.161-.012-.361-.023a38.849,38.849,0,0,0-4.629.006c-.156.009-.311.019-.468.03l-.466.037-.234.02q-.352.032-.7.07a41.729,41.729,0,0,0-14.608,4.186.459.459,0,0,1-.193.307c.292.483.118,1.6.19,2.018a13.332,13.332,0,0,1-.94,4.855c.64,7.6-1.2,15.52-6.035,21.514a35.5,35.5,0,0,1-10.566,8.708,35.56,35.56,0,0,0,10.561-8.708c4.832-5.992,6.674-13.911,6.036-21.5a34.7,34.7,0,0,1-4.385,8.084c-3.337,3.952-6.9,7.88-11.368,10.566-5.677,3.534-12.373,6.067-19.144,5.01a18.275,18.275,0,0,1-4.084-1.133,15.157,15.157,0,0,0-1.173,1.107,28.489,28.489,0,0,1-5.709,4.038,28.588,28.588,0,0,0,5.7-4.038,15.223,15.223,0,0,1,1.175-1.108c-5.477-2.262-8.7-7.114-8.571-13.715a31.217,31.217,0,0,1,.427-5.8,23.515,23.515,0,0,1,.893-3.981c-.217-.025-.437-.048-.655-.069-.534-.052-1.073-.1-1.61-.128a32.422,32.422,0,0,0-3.861-.015c-.291.017-.58.038-.869.066h0c-.288.027-.576.058-.863.1-16.852,2.47-26.457,9.442-37.261,22.1a197.962,197.962,0,0,0-16.067,20.324c-3.821,5.466-7.719,10.876-11.606,16.293-.465.483-.958,1.488-1.428,2.043q-.242.366-.489.728c-.055.08-.109.16-.165.24-.77,1.12-1.571,2.221-2.367,3.326l-.23.32c-.089.124-.179.247-.268.372q-.333.467-.663.935l-.247.353c-.005.009-.01.014-.015.023l-.131.189c-.129.187-.259.376-.387.565s-.257.379-.382.571l-.014.022H227.684C227.574,150.243,227.465,149.787,227.353,149.332Z" transform="translate(38.045 120.156)" fill="#fff"/>
    <path id="Path_251" data-name="Path 251" d="M90.469,78.7a.052.052,0,0,1-.006-.01l.023.032Z" transform="translate(152.858 132.324)"/>
    <path id="Path_252" data-name="Path 252" d="M74.312,56.14a.351.351,0,0,1,.5-.133,1.376,1.376,0,0,0-.5.134S74.312,56.142,74.312,56.14Z" transform="translate(124.697 92.683)"/>
    <path id="Path_253" data-name="Path 253" d="M72.536,58.37c.01.023.022.046.034.069-.058.111-.116.222-.17.334C72.445,58.638,72.491,58.5,72.536,58.37Z" transform="translate(121.363 96.898)"/>
    <path id="Path_254" data-name="Path 254" d="M76.169,37.5c.687.173,5.227,5.412,3.419,5.219-1.866-3.251-4.662-6.3-8.7-6.433-.285.013-.569.034-.852.063l-.17.018c-.136.015-.272.032-.406.052l-.184.027-.22.034c-.349.058-.7.13-1.044.211l-.128.03-.089.023c-.048.011-.1.024-.145.037l-.3.083-.138.041q-.1.027-.19.057l-.154.048c-.184.058-.367.119-.548.184l-.153.055-.161.06-.005,0-.159.061-.116.046-.108.043-.094.038c-.066.027-.132.055-.2.083l-.119.051c-.1.042-.19.084-.286.128-.048.021-.1.043-.142.066s-.088.041-.131.062l-.183.089c-.043.02-.086.043-.129.065-.079.04-.157.08-.235.122l-.132.07c-.041.022-.081.043-.121.066l-.1.057q-.47.261-.922.552l-.112.072c-.09.058-.179.118-.268.179l-.116.08c-.074.051-.146.1-.218.154l-.132.1c-.027.019-.053.038-.079.058l-.109.081q-.257.194-.506.4l-.1.079c-.092.078-.185.156-.277.236l-.076.066-.088.075c-.028.025-.056.049-.083.075l-.076.072-.009.009-.067.069-.015.016-.065.07-.024.027-.052.061c-.024.028-.048.057-.071.086-.071.086-.139.175-.2.265-.018.024-.036.05-.052.074-.044.063-.089.128-.132.193l-.036.055c-.051.078-.1.156-.15.234,0,0,0-.006,0-.009h0c0-.014,0-.029,0-.043l0-.012a.4.4,0,0,1,0,.067l-.057.091c-.034.055-.069.11-.1.165-1.293.187.141-1.557.523-1.878.149-.136.3-.272.457-.405.046-.039.091-.079.138-.117s.1-.084.151-.125c.034-.029.07-.057.1-.085.217-.177.44-.348.669-.516.086-.064.173-.127.26-.189l.145-.1.112-.078c.177-.12.354-.239.536-.354l.148-.094c.052-.033.1-.065.157-.1q.475-.29.968-.551l.163-.085c.2-.1.4-.2.608-.3l.12-.056.123-.057.154-.068.17-.074.162-.069q.366-.152.739-.286l.136-.048.14-.048.136-.046.106-.034.143-.046.137-.042.1-.029.124-.035.155-.043a.125.125,0,0,1,.024-.007l.166-.043.153-.038q.112-.028.225-.053c.111-.026.221-.048.331-.07h.006c.058-.012.116-.023.174-.033l.151-.027.076-.013.131-.02.167-.026.048-.006.11-.015.093-.011.23-.026.107-.011.122-.01.03,0c.056,0,.112-.009.167-.011l.122-.007.091,0,.143-.005.118,0A9.094,9.094,0,0,1,76.169,37.5Z" transform="translate(98.034 57.286)"/>
    <path id="Path_255" data-name="Path 255" d="M81.608,54.366c.4.646-3.066,1.871-3.6,2.213a35.848,35.848,0,0,1-14.58,3.245,42.286,42.286,0,0,1-10.582-1.271c-.476-.217-2.3-.413-2.037-1.088.152-.289.47-.194.7-.072a24.614,24.614,0,0,0,3.8,1.018,49.506,49.506,0,0,0,9.329.712A36.49,36.49,0,0,0,77.6,56a34.744,34.744,0,0,0,3.438-1.723A.371.371,0,0,1,81.608,54.366Z" transform="translate(83.677 89.594)" fill="#fff"/>
    <path id="Path_256" data-name="Path 256" d="M81.608,54.366c.4.646-3.066,1.871-3.6,2.213a35.848,35.848,0,0,1-14.58,3.245,42.286,42.286,0,0,1-10.582-1.271c-.476-.217-2.3-.413-2.037-1.088.152-.289.47-.194.7-.072a24.614,24.614,0,0,0,3.8,1.018,49.506,49.506,0,0,0,9.329.712A36.49,36.49,0,0,0,77.6,56a34.744,34.744,0,0,0,3.438-1.723A.371.371,0,0,1,81.608,54.366Z" transform="translate(83.677 89.594)"/>
    <path id="Path_257" data-name="Path 257" d="M68.628,72.945l-.009.006c-.031.022-.062.042-.093.062l-.037.024c0-.084,0-.166,0-.249l.1-.072C68.6,72.792,68.615,72.868,68.628,72.945Z" transform="translate(114.536 121.914)"/>
    <path id="Path_258" data-name="Path 258" d="M109.677,22.819a.352.352,0,0,1-.043-.1A.327.327,0,0,0,109.677,22.819Zm45.93,155.7a16.467,16.467,0,0,0,.046-3.105,2.1,2.1,0,0,0-.079-.419,2.378,2.378,0,0,0-.5.271c-.184.086-.483.3-.753.4.053.391-.064.945-.028,1.214a8.813,8.813,0,0,0-.051.886,1.747,1.747,0,0,1-.016.49c-.39,5.382-3.432,10.249-7.456,13.752-5.419,5-11.323,10.577-19.049,11.148-6,.764-13.131-.185-16.852-5.486a13.474,13.474,0,0,1-1.265-5.462,32.865,32.865,0,0,1,.989-11.442.487.487,0,0,1-.38-.189.637.637,0,0,0-.058.094l-.247-.032a.327.327,0,0,1-.037.083c-1.473,5.632-2.281,12.247.608,17.544a13.338,13.338,0,0,0,6.56,5.242h0a19.936,19.936,0,0,0,11.361.714,37.043,37.043,0,0,0,13.841-6.639,61.625,61.625,0,0,0,8.11-8.2,30.946,30.946,0,0,0,4.9-9.6l0-.01C155.388,179.356,155.5,178.939,155.607,178.518Zm27.376-62.176c2.515-4.245,3.315-10.219.714-14.593-2.944-4.558-9.583-3.821-13.365-.747a12.633,12.633,0,0,0-1.777,1.617.35.35,0,0,1-.038.395,3.144,3.144,0,0,0-.6.95.326.326,0,0,1-.03.131c-.091.458-.848.41-1.439.358a4.968,4.968,0,0,0-.548-.033,8.386,8.386,0,0,1-2.057-.662,8.287,8.287,0,0,1-4.324-5.912c-1.313-5.408.306-12.755,1.712-16.96a51.931,51.931,0,0,1,2.307-5.934,10.255,10.255,0,0,1-1.6.048c-10.906-.88-18.028-9.735-15.574-20.474a10.848,10.848,0,0,1-7.547,2.582,8.5,8.5,0,0,1-7.752-5.161c-.424.419-.99.824-1.182,1.036-4.024,2.979-9.29,3.748-14.187,3.707-5.507-.3-11.657-1.349-15.693-5.407a10.707,10.707,0,0,1-1.039-1.32c-.744,3.647-2.156,7.351-5.27,9.57a13.284,13.284,0,0,1-8.76,2.289,5.568,5.568,0,0,1-2.133-.946.32.32,0,0,1-.241-.111,59.367,59.367,0,0,0-1.445,8.694c-.014.159-.029.319-.042.478-.149.448-.021,2.225-.241,2.994v0c-.127,2.5-.239,5.007-.362,7.512-.247,5.3-.47,10.608-.569,15.915-.107,5.771-.066,11.541.249,17.307.009.107.018.213.027.321,0,.027.005.053.008.08s0,.033,0,.05c0,.047.009.094.013.141,0,.017,0,.034.005.051l0,.043c0,.037.007.072.012.108,0,.016,0,.033.005.05l.011.121c.008.08.015.161.024.24,0,.02,0,.04.006.06s.007.056.009.084c.009.084.018.168.027.25v.006c0,.012,0,.022,0,.032s0,.032,0,.048c.009.08.018.16.028.24.013.107.026.215.04.322.029.24.06.479.093.719.015.119.033.24.049.359s.032.22.048.329c0,.022.006.043.009.065.012.077.023.155.036.232.009.058.018.118.028.176.022.139.043.277.067.414l.042.254c.018.107.037.212.055.317l0,.019c.009.051.018.1.027.151v0l0,.014A77.035,77.035,0,0,0,85.142,133.1a37.5,37.5,0,0,0,5.692,10.211c.015.016.03.034.046.05l0,0,0,.005c.052.058.1.116.157.173l.163.177c.055.058.109.118.164.175l.164.175.165.175.165.174c.056.057.112.115.167.173l.168.171.14.147.14.147c.093.1.187.2.281.295s.187.2.282.293.188.2.283.292.189.194.284.291.191.193.287.288l.144.144c.048.048.1.1.145.142l.142.14.06.057.084.082,0,0,0,0,.038.037a22.978,22.978,0,0,0,7.615,4.364q.989.312,1.988.573l.331.086c.112.028.222.056.334.083l.382.091.235.055.235.054.236.052.152.032.118.026.269.056c.333.069.667.132,1,.193l.213.038.187.032q.438.076.879.142l.107.016.107.016.213.032.245.034.108.014.108.015c.173.024.347.046.519.067l.122.015.122.015.245.029.123.014.065.008c.019,0,.038.005.058.006l.118.013.066.007.184.019.184.019.066.006.12.011c.081.009.164.015.246.023s.171.015.258.023l.118.01.118.01c.248.021.5.041.744.057.128.009.257.018.386.025l.219.014c.126.008.251.015.378.022.1.005.206.012.31.015l.432.02.522.02.522.016.142,0,.313.008.185,0h.047c.1,0,.206,0,.308.005l.464.005h1.026l.378,0,.183,0,.281,0c.086,0,.171,0,.258-.005h.072l.512-.013.56-.018.262-.009.3-.011.222-.009.141-.006c.159-.006.319-.014.478-.023l.279-.014.5-.027.044,0,.542-.033c.179-.012.358-.023.537-.036h.023l.506-.036h.041q.3-.021.6-.046l.044,0,.632-.051c7.184-.95,13.938-4.517,19.47-9.1l.042-.024.029-.018a.289.289,0,0,1,.024-.016c.041-.029.084-.064.127-.1l.027-.023c.009-.008.018-.015.027-.024l.022-.02.022-.02c.032-.029.063-.061.1-.093l.029-.029c.2-.2.409-.438.624-.653l.03-.03a3.42,3.42,0,0,1,.42-.367l.029-.02c.02-.014.04-.027.06-.038l.029-.018.032-.018.022-.011.011-.005.023-.01.028-.011.029-.012.055-.016.027-.006a.417.417,0,0,1,.056-.008.29.29,0,0,1,.049,0l.022,0,.026,0a.328.328,0,0,1,.13.058.353.353,0,0,1,0,.494c-.8.77-1.619,1.523-2.473,2.234a40.329,40.329,0,0,1-16.264,8.049q-.5.112-1.008.212c-.225.043-.451.086-.678.127q-.51.089-1.027.168c-.116.016-.23.034-.345.049-.231.032-.462.062-.695.09l-.349.041c-.258.029-.517.055-.777.079l-.391.034q-.2.017-.393.03c-.132.009-.263.019-.395.027l-.4.023-.3.015h-.013c-.185.009-.373.015-.56.023h-.032l-.3.009q-.272.008-.549.011h-.11l-.248,0h-.316q-1.069,0-2.165-.048h-.573l-.34,0h-.04l-.446-.007-.422-.009-.3-.008-.3-.01-.343-.011h-.039c-.15-.005-.3-.011-.451-.019s-.309-.014-.464-.023l-.362-.02-.211-.013-.056,0-.243-.015-.24-.016-.3-.021-.169-.014q-.32-.025-.64-.054H111.6c.739.592,1.4,4.789,1.731,5.438a41.714,41.714,0,0,1,1.364,14.023,11.2,11.2,0,0,1-2.127,5.856.338.338,0,0,0-.052.008.194.194,0,0,0-.035.011.326.326,0,0,0-.159.132c-.086.209-.3.466-.283.7,0,.009,0,.018,0,.028a.268.268,0,0,0,.014.055l0,0-.023.025-.023.027-.023.027a.981.981,0,0,0-.064.086.149.149,0,0,0-.015.026.315.315,0,0,0-.017.029c0,.007-.006.012-.009.018s-.006.013-.009.018-.008.016-.01.024a.086.086,0,0,0-.006.019.1.1,0,0,0-.007.018.214.214,0,0,0-.006.025.124.124,0,0,0,0,.024.392.392,0,0,0,.009.187l-.012.024-.16-.024h0a9.616,9.616,0,0,0-.886,2.208.308.308,0,0,0-.006.034,29.369,29.369,0,0,0,.015,10.546c.93,4.767,3.452,6.921,6.909,7.849.018-.046.037-.093.057-.141a.253.253,0,0,0,.029.019.822.822,0,0,0,.71.216c-.015.029-.03.057-.046.084.441.094.894.17,1.36.231l.173.023.348.041.175.018.154.015.13.012.142.013.142.012.144.011.143.01c.081.005.164.012.246.015l.076,0c.086.005.174.01.26.014l.224.012.221.009.141,0c.2.008.405.013.61.016l.152,0,.17,0h.6c.072,0,.145.007.218.011q.718.03,1.44-.006c.127-.006.255-.014.384-.023s.255-.019.384-.032c.063-.005.128-.012.192-.019.192-.02.383-.043.576-.07l.193-.027.089-.014.09-.014.18-.029.181-.03.182-.032a.322.322,0,0,1-.074-.02.769.769,0,0,1-.086-.1l-.02-.027,0-.006.041.015.041.013.041.01a.884.884,0,0,0,.117.019c.032,0,.063,0,.1,0a.531.531,0,0,0,.063,0l.061,0h.008a.391.391,0,0,1-.079.058h0c7.331-1.435,14.694-7.08,19.372-12.186a22.512,22.512,0,0,0,5.313-9.761,14.507,14.507,0,0,0,.251-3.656.327.327,0,0,1,.012-.174c0-.016-.009-.033-.013-.05l-.005,0-.1.058a1,1,0,0,0,.055-.505.7.7,0,0,0-.2-.622,32.959,32.959,0,0,1-.578-3.7l-.005,0-.053.038-.027.019-.055.038q0-.1,0-.213c0-.028,0-.057,0-.085s0-.042,0-.064,0-.029,0-.044a.09.09,0,0,0,0-.019c0-.018,0-.037,0-.056v-.008c0-.01,0-.02,0-.032s0-.02,0-.032c0-.032-.006-.063-.009-.094s0-.042-.006-.062,0-.041-.008-.06,0-.042-.009-.062-.006-.041-.009-.061a.657.657,0,0,1,.118-.049h.005c-.07-.9-.109-1.792-.123-2.691,0-.043-.005-.089-.006-.133v-.006c0-.006,0-.018,0-.018a.28.28,0,0,1,0-.034c0-.086-.009-.174-.013-.26,0-.049-.005-.1-.006-.147,0-.079-.006-.159-.009-.239,0-.118-.007-.236-.011-.353,0-.091-.005-.181-.006-.273v-.021c0-.05,0-.1,0-.147,0-.088,0-.178,0-.266-.027-1.834.028-3.672.03-5.467.01-.212.023-.425.034-.64,0-.1.012-.2.018-.3q.061-.995.15-2.014l.027-.3.03-.331q.1-1.1.24-2.217c.01-.082.02-.165.03-.249q.078-.621.165-1.246c.015-.112.032-.225.048-.338s.032-.217.048-.325q.078-.52.164-1.043l.049-.3c.042-.252.086-.5.131-.756l.057-.315q.063-.347.13-.693c.022-.113.044-.225.066-.338.018-.089.036-.179.053-.268l.03-.15c.042-.2.084-.408.128-.612.022-.1.044-.207.067-.311.027-.125.055-.249.083-.375.1-.457.21-.914.321-1.37.028-.113.057-.227.085-.342v-.006c.028-.112.057-.222.085-.334.058-.227.118-.454.179-.681.03-.113.061-.226.093-.339.058-.213.119-.427.179-.639l.012-.037q.1-.337.2-.673.2-.67.419-1.336c.037-.112.072-.221.109-.331.143-.429.292-.857.447-1.28,0-.011.009-.023.013-.034.079-.217.16-.434.241-.65q.061-.16.123-.32v-.006c.006-.018.013-.034.02-.052l.019-.048v-.007c.023-.07.047-.139.071-.208a30.615,30.615,0,0,1,6.8-11.686c.043-.032.09-.071.145-.116l.005-.008.015-.016.009-.009.018-.016.009-.006.009-.007a.237.237,0,0,1,.022-.014h0l.016-.009c.069-.057.142-.12.22-.184l.048-.039.023-.018.048-.038.122-.094.008-.022.229-.041a.488.488,0,0,1,.047-.022.377.377,0,0,1,.084-.025l.016,0h.014a.3.3,0,0,1,.084,0c.119-.023.247-.05.381-.078.142-.011.283-.025.426-.041l.212-.024q.175-.021.35-.046c.038-.005.076-.01.114-.017.056-.007.11-.016.165-.025h0l.023,0c.046-.006.09-.014.134-.022l.057-.009.043-.006.16-.028h.008c.147-.025.295-.055.441-.085a17.345,17.345,0,0,0,1.791-.467l.187-.061.1-.032c.052-.016.1-.034.156-.053l.041-.014.213-.078.229-.086.006,0a15.446,15.446,0,0,0,1.775-.814c.1-.067.2-.136.292-.2,1.4-.631,2.839-1.263,4.228-1.976a.33.33,0,0,0,.107,0h0a1.622,1.622,0,0,0,.533-.281c.236-.154.475-.306.714-.458l.006,0,.09-.058-.013.014c.084-.048.168-.1.25-.147l.123-.075c.083-.05.164-.1.245-.15s.164-.1.245-.154c.061-.038.121-.077.181-.117s.121-.079.179-.118.12-.079.178-.121c.118-.08.236-.162.352-.245l.174-.126.171-.127c.085-.063.17-.129.254-.2s.168-.132.25-.2.147-.121.218-.182c.217-.184.43-.372.636-.569l.2-.2A12.66,12.66,0,0,0,182.983,116.342Zm52.107,146.84c.676-.469.542-1.3.507-2.022a.329.329,0,0,1,.057-.214c-1.027-3.432-1.723-6.969-2.583-10.445q-.343-1.482-.7-2.96c-.01-.044-.022-.088-.032-.131q-.183-.75-.371-1.5c-.083-.333-.167-.667-.25-1s-.168-.665-.253-1c-.042-.166-.084-.333-.127-.5l-.252-.986c-.578-2.249-1.163-4.5-1.735-6.747q-.07-.275-.139-.549-.278-1.1-.548-2.194c0-.015,0-.029,0-.044a.3.3,0,0,1,0-.032c0-.01,0-.02,0-.029a.223.223,0,0,1,.008-.032l.008-.024a.2.2,0,0,1,.01-.025.548.548,0,0,1,.028-.047l.014-.016,0,0a165.247,165.247,0,0,0-5.152-16.522,109.883,109.883,0,0,0-14.508-27.32q-.59-.849-1.21-1.67c-.051-.067-.1-.135-.154-.2q-.383-.5-.778-.994c-.049-.062-.1-.125-.15-.185l-.175-.215q-.93-1.132-1.914-2.2c-.06-.065-.119-.13-.18-.193l-.213-.227c-.063-.069-.128-.136-.193-.2l-.007-.009c-.064-.066-.127-.132-.191-.2l-.01-.012-.2-.2c-.066-.069-.133-.136-.2-.2-.052-.052-.1-.105-.157-.158l-.249-.246-.184-.179-.048-.047-.17-.164c-.009-.007-.017-.016-.026-.024l-.19-.182c-.069-.066-.139-.131-.208-.2l-.21-.194-.21-.193q-.842-.768-1.717-1.486l-.175-.143q-.461-.375-.93-.735l-.179-.137-.149-.112-.236-.177c-.057-.043-.113-.085-.171-.127l-.142-.1-.057-.041-.17-.123q-.33-.238-.667-.47c-.078-.055-.155-.107-.232-.16l-.206-.14q-.507-.341-1.022-.667c-.083-.052-.165-.1-.249-.155-.269-.168-.54-.331-.814-.493l-.191-.112-.233-.136c-.1-.058-.206-.118-.31-.175-.055-.032-.11-.062-.165-.093l-.191-.1-.2-.108-.1-.056-.14-.075-.2-.1-.251-.131-.014-.008c-.072-.038-.145-.075-.218-.112-.121-.061-.241-.122-.362-.182-.084-.042-.166-.083-.25-.122s-.167-.081-.25-.12-.17-.081-.255-.121l-.249-.116q-.3-.137-.594-.268l-.423-.184c-.081-.034-.161-.069-.243-.1l-.271-.112-.184-.075c-.111-.046-.222-.089-.333-.132-.086-.034-.173-.069-.259-.1s-.2-.077-.3-.114l-.2-.075-.038-.014-.185-.067q-.457-.165-.919-.319l-.173-.057c-.164-.053-.328-.107-.493-.158l-.16-.049-.167-.051c-.132-.041-.264-.079-.4-.118s-.265-.076-.4-.113q-.274-.076-.55-.148t-.522-.133c-.188-.047-.379-.092-.568-.136l-.216-.049q-.173-.04-.347-.076l-.23-.048-.061-.013-.213-.043-.056-.012-.222-.043-.071-.014c-.066-.014-.133-.026-.2-.038l-.081-.015c-.064-.011-.128-.024-.193-.034-.081-.015-.161-.029-.243-.042l-.178-.029-.16-.027c-.081-.014-.162-.027-.245-.038l-.154-.023-.184-.027-.282-.04c-.114-.015-.23-.032-.345-.046-.162-.02-.325-.041-.489-.06l-.3-.033-.271-.028-.237-.023-.163-.015q-.228-.021-.457-.038l-.152-.012-.161-.011-.361-.023a38.785,38.785,0,0,0-4.629.007c-.156.009-.311.019-.467.03s-.311.023-.466.037l-.234.02c-.236.02-.472.044-.71.07a41.73,41.73,0,0,0-14.6,4.183.462.462,0,0,1-.193.31c.292.483.118,1.6.19,2.018a13.343,13.343,0,0,1-.94,4.855l0,.01a34.709,34.709,0,0,1-4.385,8.085c-3.337,3.952-6.9,7.88-11.368,10.566-5.677,3.534-12.373,6.067-19.144,5.01a18.277,18.277,0,0,1-4.084-1.133h0c-5.477-2.262-8.7-7.114-8.571-13.715a31.24,31.24,0,0,1,.427-5.8,23.533,23.533,0,0,1,.893-3.981c-.217-.024-.435-.048-.655-.069-.535-.052-1.073-.1-1.61-.128a32.366,32.366,0,0,0-3.861-.015q-.436.025-.869.066c-.291.027-.582.058-.87.1-16.852,2.47-26.457,9.442-37.261,22.1A197.9,197.9,0,0,0,48.02,222.927C44.2,228.393,40.3,233.8,36.414,239.22c-.457.475-.944,1.459-1.407,2.019a.212.212,0,0,0-.015.024q-.242.366-.489.728c-.055.08-.109.16-.165.24-.77,1.12-1.571,2.221-2.367,3.326l-.23.32c-.089.125-.179.248-.268.372q-.333.467-.663.935l-.248.353-.015.022-.131.189c-.129.187-.259.376-.387.565s-.257.381-.382.571a.182.182,0,0,1-.014.022c-.31.469-.612.941-.905,1.421-.22.362-.436.724-.644,1.092-1.575,2.681-2.849,5.531-4.535,8.149a1.737,1.737,0,0,0-.291.527,13.041,13.041,0,0,0,2.311,1.021c5.437,1.545,11.228.894,16.813,1.394,9.109.568,18.225,1.029,27.337,1.564,9.086.62,18.137,1.7,27.25,1.929,13.281.653,26.58.338,39.865.628,8.732.178,17.455.837,26.194.617,5.574-.2,11.122-.82,16.682-1.24,6.469-.573,12.98-.269,19.449-.837,4.2-.406,8.391-1.007,12.622-1.1a97.673,97.673,0,0,1,11.855-.2,57.412,57.412,0,0,0,7.588.027C232.543,263.854,233.978,264.035,235.09,263.182Zm2.158.346a.349.349,0,0,1-.65.255c-.126-.346-.251-.694-.37-1.04-.54,1.553-2.847,1.975-4.463,1.844-2.04.036-4.079.23-6.119.088a89.21,89.21,0,0,0-12.557.036c-4.168.129-8.316.516-12.452,1.032-5.388.576-10.814.466-16.221.683-8.855.4-17.664,1.775-26.544,1.55-9.99-.1-19.962-.8-29.955-.763-17.143-.055-34.32-.123-51.388-1.918-12.016-.963-24.07-1.429-36.1-2.17-5.313-.453-10.886.25-15.958-1.665a12.971,12.971,0,0,1-1.52-.73.372.372,0,1,1-.62-.392c-.143-.1-.283-.206-.419-.315a.35.35,0,0,1-.13-.458c.308-.417.6-.038.9.17a1.157,1.157,0,0,0,.114-.241c.939-1.578,1.9-3.142,2.715-4.79a42.843,42.843,0,0,1,2.409-4.368c.589-.944,1.2-1.874,1.834-2.79,1.44-2.1,2.951-4.164,4.375-6.274a.323.323,0,0,1,.055-.126q.213-.3.429-.6c.338-.514.672-1.031,1-1.553a.316.316,0,0,1,.265-.2c3.3-4.592,6.6-9.18,9.857-13.8a213.89,213.89,0,0,1,18.6-23.693c4.465-4.992,9.138-9.911,14.758-13.618a56.329,56.329,0,0,1,23.566-8,44.446,44.446,0,0,1,8.659.424c1.091-1.83,2.456-3.467,2.65-6.284a41.513,41.513,0,0,0-.659-11.474q-.556-2.395-1.215-4.77l-.069.028c-.032-.141-.069-.281-.113-.418a6.953,6.953,0,0,0-.685-1.581,6.775,6.775,0,0,0-.664-.926h-.01a.367.367,0,0,1-.094-.013c-1.633-.391-3.3-.759-4.958-1.189h-.005c-.132-.022-.263-.046-.395-.07l-.166-.033c-.367-.079-.727-.183-1.088-.281-.327-.089-.649-.184-.969-.291-.217-.084-.425-.185-.639-.281l-.043-.019h0a20.753,20.753,0,0,1-7.1-3.869,55.941,55.941,0,0,1-7.193-7.87c-2.48-3.7-3.914-8-5.3-12.209-.192-.587-.379-1.175-.556-1.765v0c-.121-.292-.243-.582-.371-.87q-.179-.4-.367-.8c-.138-.626-.273-1.253-.43-1.876-.132-.522-.261-1.048-.423-1.562-.13-.993-.259-1.988-.372-2.983v-.006a49.755,49.755,0,0,1-.768-7.957c-.356-10.007-.027-20.016.451-30.011.136-2.763.259-5.527.4-8.29v-.012c0-.06,0-.122.009-.184q.049-.949.1-1.9c.046-.791.094-1.582.118-2.375.046-.043.091-.089.134-.133.014.07.029.14.044.21.113-.937.243-1.873.376-2.808a42.89,42.89,0,0,1,1.03-4.915A10.869,10.869,0,0,1,75.7,54.12c-.979-2.747.009-5.737,1.444-8.137,1.152-1.549,2.591-3.707,4.506-4.338a18.13,18.13,0,0,1-1.175-12.768c3.915-12,20.294-15.012,29.566-7.319l.023.019c1.057-.765,2.813-1.668,3.158-1.911,4.454-2.078,10.471-3.736,14.783-.551a1.154,1.154,0,0,1,.323.312c.865-.472,2.808-.9,3.166-1.124a58.389,58.389,0,0,1,7.128-1.827c14.672-3.127,25.8.447,36.273,11.086,4.414,4.623,9.128,9.466,11.384,15.555.051.16.155.4.221.629a2.53,2.53,0,0,1,1.331-.5c4.209-.819,8.463.992,9.59,5.373,2.131,6.719-.608,13.724-2.248,20.262a92.2,92.2,0,0,1-11.014,24.74,46.6,46.6,0,0,0-2.805,5.031.36.36,0,0,1-.032.054,7.4,7.4,0,0,1,2.746,2.354,10.845,10.845,0,0,1,1.293,2.7.594.594,0,0,1,0-.182q.014.132.03.263a.187.187,0,0,1-.018-.027v0l.023.075c.008.055.016.109.027.164a3.338,3.338,0,0,0,.216.73c1.19,5.128-.639,11.376-4.414,14.7a30.64,30.64,0,0,1-6.3,3.859l-.232.18q-.326.158-.654.309c-.589.269-1.181.53-1.783.768l-.024.009a33.175,33.175,0,0,1-5,1.827,17.253,17.253,0,0,1-2.108.436.969.969,0,0,1-.272-.033,2.011,2.011,0,0,0-.21.067,2.687,2.687,0,0,0-.3.325q-.339.381-.661.767c-.023.052-.047.1-.07.155-.081.105-.161.213-.239.321-.1.114-.2.232-.3.351-.217.265-.426.537-.631.81l-.243.329c-.065.079-.13.159-.193.24l.067-.17q-.367.491-.731.989a43.579,43.579,0,0,0-5.764,12.736q-.072.383-.143.768c-.1.573-.2,1.147-.3,1.721-.006.037-.011.074-.018.109a8.824,8.824,0,0,0-.312,1.738c-.029.432-.055.871-.06,1.312-.008.065-.015.13-.021.193q-.1.425-.184.851l0,.012v0c-.107.494-.216.989-.314,1.486l-.021,0c-.018.13-.037.259-.053.387-.055.295-.112.592-.151.889-.019.144-.041.286-.055.43-.011.114-.025.229-.029.344a1.528,1.528,0,0,0,0,.166c-.477,3.98-.739,7.93-.95,11.64,0,.581,0,1.163.005,1.745a28.769,28.769,0,0,0,.545,4.421c.114.565.243,1.127.393,1.681a.356.356,0,0,1-.34.419c.046.232.093.465.143.7a.251.251,0,0,1,.253.084,39.858,39.858,0,0,1,6.418-3.024l-.018-.026c.112-.037.221-.081.329-.124l.306-.121a.323.323,0,0,1,0,.048,41.674,41.674,0,0,1,38.775,6.19,54.944,54.944,0,0,1,9.076,9.566,1.493,1.493,0,0,0,.088.251l.027.057a1.771,1.771,0,0,0,.716.8c.119.161.237.323.356.484a.283.283,0,0,1,.046-.173c.066.086.133.173.2.26l0,.005.005.006.006.009a.215.215,0,0,1,.015.023l.093.132-.051,0a.416.416,0,0,1-.14-.023c1.25,1.731,2.441,3.5,3.593,5.282a125.2,125.2,0,0,1,9.774,19.7q2.234,5.681,3.961,11.541c.823,2.851,1.525,5.732,2.318,8.59a.312.312,0,0,1-.057.315c1.1,4.3,2.211,8.6,3.273,12.909q.941,3.815,1.816,7.647c.505,2.154,1.03,4.313,1.7,6.426C236.807,262.249,236.982,262.908,237.248,263.528Z" transform="translate(33.03 21.948)" fill="#1b1b1e"/>
    <path id="Path_259" data-name="Path 259" d="M60.975,69.519c0-.085,0-.17,0-.254,0-.126-.005-.251-.012-.376,0-.083-.007-.165-.013-.247-.008-.123-.016-.245-.027-.367,0-.039-.006-.077-.01-.117-.008-.081-.016-.162-.026-.243,0-.038-.009-.075-.013-.113-.01-.081-.02-.161-.032-.241-.008-.057-.016-.113-.025-.169-.018-.112-.036-.222-.056-.333s-.041-.217-.063-.324c-.042-.2-.088-.39-.137-.578-.026-.094-.051-.185-.078-.277-.014-.046-.027-.09-.041-.136-.028-.09-.057-.179-.086-.265-.044-.131-.091-.259-.14-.384-.032-.083-.066-.164-.1-.244s-.07-.157-.105-.235-.072-.153-.111-.225-.076-.145-.116-.216-.079-.139-.119-.2l-.061-.1c-.041-.065-.084-.127-.127-.188s-.086-.12-.131-.176c-.023-.029-.044-.057-.067-.085-.044-.056-.09-.109-.136-.16s-.093-.1-.141-.149a2.048,2.048,0,0,0-3.157,0,4.246,4.246,0,0,0-.474.572c-.015.022-.03.043-.046.066q-.074.109-.145.225l-.047.077a7.253,7.253,0,0,0-.428.861l-.038.094c-.025.063-.051.127-.075.192s-.048.131-.072.2l-.03.089c-.048.141-.093.285-.136.432-.009.033-.019.066-.028.1-.02.071-.039.143-.058.216-.009.037-.019.074-.028.111s-.014.058-.021.089c-.022.089-.041.176-.061.268-.009.04-.016.079-.025.119s-.019.1-.029.147c-.021.113-.042.229-.061.345-.006.036-.011.071-.016.107s-.012.072-.015.109-.009.061-.013.09-.011.081-.016.122-.012.1-.018.145-.011.1-.018.157-.011.1-.015.156V68.2c0,.037-.006.074-.009.11s-.005.056-.007.084-.006.084-.009.126-.006.1-.01.151a.1.1,0,0,1,0,.02l-.007.155c0,.036,0,.07-.005.106,0,.014,0,.027,0,.039,0,.041,0,.081,0,.122,0,.079,0,.159-.005.239,0,.053,0,.108,0,.161s0,.108,0,.161c0,.08,0,.16.005.239,0,.041,0,.081,0,.122,0,.014,0,.027,0,.041,0,.034,0,.07.005.1l.007.155a.1.1,0,0,0,0,.02c0,.051.006.1.01.151s.006.084.009.126,0,.056.007.084.006.074.009.11v.005c0,.052.01.1.015.156s.012.105.018.157.012.1.018.145.01.081.016.122.009.061.013.09.01.072.015.109.012.071.016.107c.018.117.038.231.061.345.009.049.019.1.029.147s.016.08.025.119c.019.09.039.179.061.268.006.029.014.058.021.089s.018.074.028.111c.018.072.038.145.058.216.009.033.019.066.028.1.043.147.088.292.136.432l.03.089c.023.066.047.132.072.2s.05.128.075.192l.038.094a6.876,6.876,0,0,0,.428.861c.015.027.03.052.047.077q.07.116.145.225c.015.022.029.044.046.066a4.353,4.353,0,0,0,.474.572,2.049,2.049,0,0,0,3.157,0c.047-.048.094-.1.141-.149s.091-.1.136-.16c.023-.028.044-.056.067-.085.044-.057.088-.115.131-.177s.085-.124.127-.188l.061-.1c.041-.066.081-.134.119-.2s.077-.142.116-.216.075-.148.111-.225.071-.155.105-.235.069-.161.1-.244c.048-.124.1-.251.14-.384.029-.088.058-.176.086-.265.014-.046.028-.09.041-.136.027-.092.052-.184.078-.277.049-.188.1-.381.137-.578.023-.107.043-.216.063-.324s.038-.219.056-.333c.009-.056.016-.112.025-.169.012-.08.022-.16.032-.241,0-.038.009-.075.013-.113.009-.08.018-.161.026-.243,0-.04.006-.078.01-.117.01-.121.02-.243.027-.367.005-.081.009-.165.013-.247.006-.125.009-.249.012-.376C60.975,69.689,60.975,69.6,60.975,69.519Zm15.05-.93a.516.516,0,0,0-.015-.2L76,68.363a.137.137,0,0,0-.02-.038l-.013-.018-.019-.02a.2.2,0,0,0-.063-.041.374.374,0,0,0-.405.111,1.939,1.939,0,0,0-.354.618c-.02.05-.041.1-.06.152-.01.026-.019.051-.029.078s-.009.025-.014.038-.019.051-.028.076-.01.028-.015.043c-.029.079-.058.156-.088.229-.011.03-.024.061-.037.09a1.939,1.939,0,0,1-.143.288.26.26,0,0,1-.022.032.251.251,0,0,1-.024.032q-1.274,2.79-2.3,5.685-.372,1.042-.733,2.087c-.09.26-.182.522-.272.783s-.18.522-.271.784q-.221.636-.44,1.274-.253.735-.509,1.469l-.171.49q-.122.35-.246.7-.135.383-.272.765c-.107.358-.243.764-.394,1.2-.038.11-.076.222-.116.335-.013.038-.027.076-.039.114-.027.078-.053.154-.08.232s-.055.157-.081.238-.055.16-.083.241l-.084.245c-.042.123-.084.247-.124.373-.027.084-.055.168-.083.253s-.055.17-.081.255c-.014.043-.027.086-.041.128-.107.343-.209.691-.3,1.039-.022.081-.043.164-.063.245s-.041.164-.061.245c-.027.109-.052.217-.075.325-.037.162-.07.325-.1.485s-.061.343-.085.512a8.48,8.48,0,0,0-.1,1.328c0,.065,0,.13.006.193s.006.127.012.189c0,.032,0,.062.009.093s.006.061.01.093c.006.061.015.121.024.179v0c0,.02.006.041.01.06l.008.042c0,.025.009.051.014.076s.012.058.018.088c.011.055.025.107.039.16a.109.109,0,0,0,.005.02c.006.024.013.048.02.071a.022.022,0,0,0,0,.009c.008.027.015.052.024.079.019.058.038.116.061.171l.019.05a.357.357,0,0,0,.016.041l.023.053a2.52,2.52,0,0,0,.146.287l.032.055c.022.037.044.071.067.106s.032.046.048.069.032.043.048.065c0,0,0,0,0,0,.017.021.033.043.052.065.032.038.064.075.1.112l.027.028c.015.016.032.033.048.048a3.619,3.619,0,0,0,2.314.936.622.622,0,0,0,.116.009,8.1,8.1,0,0,0,3.671-1.464l.005-.005a.009.009,0,0,1,0,0,.084.084,0,0,1,.01-.01l.05-.052c.02-.022.038-.043.055-.065s.032-.043.044-.064l.015-.025a.47.47,0,0,0,.025-.05.489.489,0,0,0,.018-.049.351.351,0,0,0,.015-.1.3.3,0,0,0-.006-.06v0a.012.012,0,0,0,0-.006.263.263,0,0,0-.02-.057.163.163,0,0,0-.014-.014.339.339,0,0,0-.254-.1h-.029a.2.2,0,0,0-.038,0l-.024,0a.052.052,0,0,0-.019,0l-.028.005a.581.581,0,0,0-.058.015l-.029.009a2.008,2.008,0,0,0-.324.145l-.069.038-.034.02-.07.042c-.081.049-.165.1-.249.158l-.072.047-.071.047-.071.047c-.19.124-.378.246-.548.334a.229.229,0,0,1-.023.012c-.025.013-.048.024-.072.034l-.031.014c-.02.009-.041.018-.06.024a.868.868,0,0,1-.114.036l-.027.006-.027.005a3.1,3.1,0,0,1-3.5-.389,2.05,2.05,0,0,1-.3-.4l-.046-.081a.241.241,0,0,1-.015-.032c-.008-.014-.014-.028-.021-.042s-.017-.036-.024-.053-.013-.029-.019-.044c-.018-.043-.035-.089-.051-.135s-.029-.093-.042-.141-.023-.1-.033-.147a2.472,2.472,0,0,1-.038-.315c-.127-3.576,1.6-6.924,2.647-10.281,1.219-3.469,2.325-6.986,3.778-10.367a.4.4,0,0,1,.013-.058c0-.01.005-.021.009-.032s0,0,0-.005.007-.02.01-.03.008-.024.013-.037.018-.051.029-.077.022-.056.034-.085l.019-.046c.016-.038.034-.077.055-.119.009-.02.019-.041.029-.062.029-.061.06-.125.093-.19.025-.05.049-.1.076-.151l.039-.077c.04-.076.079-.155.121-.235.02-.039.041-.08.062-.12l.126-.245.062-.123.093-.185.03-.061c.027-.057.055-.113.08-.168.04-.084.078-.166.113-.246.023-.053.046-.106.067-.159.012-.026.022-.052.032-.077s.02-.052.029-.078c.015-.042.03-.084.044-.124a.317.317,0,0,0,.015-.048c.012-.032.02-.064.029-.093.018-.061.032-.118.042-.173,0-.014.005-.027.007-.039v0c0-.013,0-.026,0-.037A.129.129,0,0,1,76.025,68.589Zm2.668,92.2.142.08c-.044-.027-.089-.055-.131-.084A.048.048,0,0,1,78.693,160.786Zm.578.316a.067.067,0,0,1,0-.016c-.085-.037-.168-.075-.249-.116l.138.075Zm3.77,15.237c0-.009-.006-.019-.01-.028-.058.14-.118.279-.175.419a1.178,1.178,0,0,1,.063-.106C82.96,176.529,83,176.434,83.041,176.338Zm8.694-74.084c.531-.343,4-1.567,3.6-2.213a.371.371,0,0,0-.574-.088,34.718,34.718,0,0,1-3.438,1.723A36.487,36.487,0,0,1,78.364,104.8a49.59,49.59,0,0,1-9.329-.712,24.623,24.623,0,0,1-3.8-1.018c-.232-.121-.551-.216-.7.072-.262.676,1.561.871,2.037,1.088A42.348,42.348,0,0,0,77.155,105.5,35.849,35.849,0,0,0,91.735,102.255Zm18.505,50.522.351-.2a.33.33,0,0,1-.036-.014C110.451,152.632,110.346,152.7,110.241,152.777Zm2.958-1.829.009-.006c-.013-.078-.027-.154-.044-.229l-.1.072c0,.083,0,.165,0,.249a.42.42,0,0,0,.037-.024C113.136,150.99,113.168,150.97,113.2,150.949Zm27.981-68.013a.315.315,0,0,0,0-.07.176.176,0,0,0,0-.037.07.07,0,0,0,0-.018.33.33,0,0,0-.009-.034c0-.011-.009-.024-.014-.035a.3.3,0,0,0-.023-.044.409.409,0,0,0-.075-.093.483.483,0,0,0-.048-.038.333.333,0,0,0-.054-.029.183.183,0,0,0-.029-.01.222.222,0,0,0-.046-.012.3.3,0,0,0-.048,0,.314.314,0,0,0-.06.006l-.009,0a.249.249,0,0,0-.038.012.438.438,0,0,0-.066.03,43.827,43.827,0,0,0-6.674,4.865l-.183.171c-.061.057-.12.116-.179.173l-.089.086c-.111.108-.218.217-.324.326l-.1.109c-.216.226-.423.455-.618.685l-.136.162c-.046.055-.089.108-.132.163l-.065.081c-.127.164-.249.326-.363.49l-.057.081q-.126.185-.24.37l-.075.123-.079.136-.075.136a6.181,6.181,0,0,0-.367.815c-.015.046-.032.09-.047.136s-.029.09-.042.136c-.02.067-.038.135-.055.2-.011.044-.021.09-.03.135q-.021.1-.038.2c-.009.06-.018.118-.024.178l.013.021c0,.006.009.014.014.02a.372.372,0,0,0,.03.036.316.316,0,0,0,.226.093.4.4,0,0,0,.286-.125.341.341,0,0,0,.055-.075.318.318,0,0,0,.038-.176c0-.006,0-.012,0-.018a.328.328,0,0,0-.006-.036.066.066,0,0,0,0-.018,6.337,6.337,0,0,1,1.1-1.975c.136-.18.276-.357.418-.531l.216-.259c.363-.429.744-.839,1.141-1.235.1-.1.2-.195.294-.29l.149-.142c.342,1.085.749,2.135,1.077,3.265a.261.261,0,0,0,.018.049.1.1,0,0,1,.006.017.067.067,0,0,0,.009.016.255.255,0,0,0,.014.023l.015.023c.006.009.015.018.023.027a.322.322,0,0,0,.234.093.4.4,0,0,0,.277-.113l.02-.022a.3.3,0,0,0,.033-.048l.009-.016c0-.01.009-.02.013-.03a.268.268,0,0,0,.009-.032.335.335,0,0,0-.008-.173c-.291-.92-.584-1.836-.9-2.747a8.087,8.087,0,0,1-.275-.857,39,39,0,0,1,5.8-4.123.388.388,0,0,0,.079-.058l.023-.024a.269.269,0,0,0,.032-.046.126.126,0,0,0,.012-.024.121.121,0,0,0,.01-.024A.1.1,0,0,0,141.179,82.935Zm5.593-3.156c2.6,4.374,1.8,10.348-.714,14.593a12.379,12.379,0,0,1-1.74,2.136l-.2.2c-.206.2-.419.385-.636.569-.072.061-.145.122-.218.182s-.166.133-.25.2-.169.131-.254.2c-.057.043-.114.085-.171.127l-.174.126c-.115.083-.233.165-.352.245-.058.041-.118.08-.178.12l-.179.118-.181.117-.245.154-.245.15-.123.075-.25.147h0l.014-.014h0l-.09.058-.006,0c-.239.154-.477.3-.714.458a1.63,1.63,0,0,1-.533.28h-.005a.3.3,0,0,1-.106,0c-1.388.713-2.828,1.345-4.228,1.976-.1.069-.194.137-.292.2a15.211,15.211,0,0,1-1.775.814s0,0-.006,0c-.076.029-.153.058-.229.086s-.142.052-.213.078l-.041.014c-.052.018-.1.037-.156.053l-.1.032-.187.061a16.961,16.961,0,0,1-1.791.467c-.147.03-.294.058-.441.085h-.007l-.16.028-.043.006-.057.009c-.044.008-.089.015-.135.022l-.023,0h0l-.165.025-.114.017q-.175.025-.351.046l-.212.024c-.142.015-.283.029-.425.041-.133.028-.26.055-.38.078h0a.31.31,0,0,0-.084,0h-.014l-.016,0a.316.316,0,0,0-.084.025c-.015.006-.029.014-.044.022h0l-.229.041c0,.006-.005.014-.008.022l-.122.094-.048.038-.023.018a.619.619,0,0,1-.048.039c-.077.064-.15.126-.218.183,0,0,0,0,0,0l-.015.009h0l-.021.014s-.007,0-.009.006l-.009.006-.018.016a.052.052,0,0,0-.009.009l-.014.015h0a.023.023,0,0,0,0,.007c-.055.044-.1.084-.145.116a30.643,30.643,0,0,0-6.8,11.686c-.024.07-.048.138-.071.208a.005.005,0,0,1,0,0,0,0,0,0,1,0,0,.005.005,0,0,1,0,0l-.019.048c-.006.018-.014.034-.02.052a0,0,0,0,1,0,0s0,0,0,0c-.042.107-.083.212-.123.32-.081.216-.163.432-.241.65a.342.342,0,0,1-.013.034q-.23.636-.447,1.28c-.037.111-.074.221-.109.331q-.217.663-.419,1.336-.1.335-.2.673a.361.361,0,0,1-.011.037q-.092.318-.179.639c-.03.113-.061.226-.093.339-.061.227-.121.453-.179.681-.029.112-.057.222-.085.334,0,0,0,0,0,.006-.028.114-.057.227-.085.342q-.168.684-.321,1.37c-.028.125-.056.249-.083.375-.023.1-.046.208-.067.311-.043.2-.086.408-.128.612l-.03.15c-.018.089-.037.179-.053.268-.023.113-.044.226-.066.338q-.067.347-.129.693c-.019.105-.038.211-.057.315-.046.251-.089.5-.131.756-.017.1-.034.2-.05.3q-.086.522-.164,1.043c-.016.109-.032.217-.048.325s-.033.225-.048.338q-.088.625-.165,1.246l-.031.249q-.137,1.118-.24,2.217c-.012.111-.02.221-.03.331s-.018.2-.027.3q-.088,1.017-.15,2.014c-.006.1-.013.2-.018.3q-.019.322-.034.64c0,1.795-.057,3.633-.03,5.467,0,.088,0,.175.005.263v0c0,.049,0,.1,0,.147v.021c0,.09,0,.182.006.273,0,.118.006.235.012.353,0,.079,0,.159.009.239,0,.049,0,.1.006.147,0,.086.008.174.013.26,0,.012,0,.023,0,.034a.077.077,0,0,0,0,.018v.006c0,.043.005.086.006.131v0q.021,1.349.123,2.691h0a.775.775,0,0,0-.118.049c0,.02.006.041.009.061s0,.04.009.06v0l.008.06c0,.02,0,.041.006.062s.006.062.009.094a.231.231,0,0,1,0,.032c0,.011,0,.022,0,.032v.007c0,.019,0,.037,0,.056s0,.013,0,.019,0,.029,0,.044,0,.043,0,.064,0,.057,0,.085c0,.072,0,.145,0,.213l.055-.038.027-.019.053-.038,0,0a33.084,33.084,0,0,0,.578,3.7.7.7,0,0,1,.2.622.966.966,0,0,1-.055.506s0,0,0,0l.1-.062,0,0c0,.016.009.034.013.05a.313.313,0,0,0-.011.174,14.516,14.516,0,0,1-.252,3.656,22.513,22.513,0,0,1-5.313,9.761c-4.679,5.106-12.04,10.751-19.372,12.186h0a.4.4,0,0,0,.079-.058h-.008c-.019,0-.04,0-.058.005h0l-.064,0a.8.8,0,0,1-.1,0,.876.876,0,0,1-.117-.019l-.041-.01-.041-.013c-.014-.005-.027-.009-.041-.015l.012.015.014.019.043.052c.014.015.028.03.043.044a.307.307,0,0,0,.072.02h0l-.182.032c-.06.011-.121.02-.18.03L90.7,180l-.09.014-.089.014c-.063.01-.128.019-.193.027-.193.027-.385.05-.576.07-.063.006-.128.014-.192.019-.128.013-.255.023-.384.032s-.255.016-.384.023q-.722.036-1.44.007c-.072,0-.145-.007-.218-.012h-.6l-.17,0-.153,0c-.2,0-.407-.009-.609-.017l-.141,0-.221-.009c-.075,0-.149-.007-.224-.012l-.26-.014c-.025,0-.051,0-.076-.005l-.246-.015-.144-.01c-.048,0-.1-.006-.143-.012l-.142-.011-.142-.013-.13-.011-.154-.015-.175-.018c-.117-.013-.232-.027-.348-.041-.057-.006-.116-.015-.173-.023-.465-.062-.918-.139-1.359-.232l.046-.084a.82.82,0,0,1-.71-.216l-.029-.019c-.02.048-.039.094-.057.14-3.454-.93-5.974-3.082-6.9-7.848a29.422,29.422,0,0,1-.011-10.57,9.612,9.612,0,0,1,.888-2.217l.16.024.012-.024a.407.407,0,0,1-.009-.187.131.131,0,0,1,0-.024.171.171,0,0,0,.006-.025l.006-.018a.129.129,0,0,1,.006-.019l.01-.024a.082.082,0,0,1,.009-.018c0-.007.006-.012.009-.018s.012-.019.016-.029l.015-.025a.986.986,0,0,1,.063-.086.22.22,0,0,1,.023-.027l.023-.027.023-.026s0,0,0,0a.284.284,0,0,1-.014-.055c0-.009,0-.018,0-.028-.018-.233.2-.49.283-.7a.33.33,0,0,1,.159-.132.359.359,0,0,1,.035-.011.349.349,0,0,1,.052-.008h0a11.187,11.187,0,0,0,2.127-5.855,41.706,41.706,0,0,0-1.364-14.022c-.333-.649-.99-4.844-1.73-5.437q.32.028.64.053l.169.014.3.022.24.016c.081.005.161.012.243.015l.056,0,.211.013.362.02c.154.009.308.015.463.023s.3.014.451.019h.039q.171.008.343.011l.3.009.3.009.421.009c.149,0,.3.005.446.006a.369.369,0,0,0,.039,0c.113,0,.227,0,.34,0h.573q1.1.048,2.165.048H83.1l.247,0h.111c.184,0,.366-.006.548-.012l.3-.009h.032q.282-.009.56-.023h.013l.3-.015c.132-.006.264-.015.4-.023s.263-.018.4-.027.261-.02.392-.03.26-.022.391-.034c.26-.024.519-.05.777-.079l.349-.041c.232-.028.465-.058.695-.09.116-.015.231-.033.345-.05q.516-.076,1.028-.168.341-.061.678-.127l.253-.051c.169-.034.337-.07.5-.106l.251-.056.272-.062c.18-.042.361-.085.54-.131q.4-.1.805-.211c.178-.048.356-.1.533-.15h0a41.3,41.3,0,0,0,14.118-7.5c.853-.712,1.673-1.464,2.473-2.234a.353.353,0,0,0,0-.494.325.325,0,0,0-.135-.06l-.025,0-.022,0a.3.3,0,0,0-.05,0,.416.416,0,0,0-.056.007l-.027.006-.055.017-.029.011-.028.012-.023.01-.012,0-.021.012-.032.018a.337.337,0,0,0-.029.018c-.02.011-.039.025-.06.038l-.029.02a3.56,3.56,0,0,0-.42.367l-.03.03c-.215.216-.428.455-.623.653-.01.009-.019.019-.029.029l-.1.093-.022.02-.021.02-.027.024c-.009.009-.018.015-.027.023a1.6,1.6,0,0,1-.127.1l-.024.017a.33.33,0,0,1-.029.018c-.014.009-.028.017-.042.024-5.532,4.586-12.285,8.153-19.469,9.1l-.632.051-.044,0c-.2.015-.4.032-.6.046h-.041l-.507.036h-.023l-.537.036-.542.033-.044,0c-.167.01-.335.019-.5.027l-.28.014c-.159.009-.317.015-.477.023l-.141.006-.222.009c-.1.005-.2.009-.3.012l-.261.009-.56.018-.512.013h-.072l-.258.005-.281,0-.183,0c-.126,0-.253,0-.379,0H80.36l-.463,0-.309-.005h-.047l-.185,0-.312-.007-.142,0-.522-.016-.522-.021-.432-.02-.31-.015-.378-.022-.218-.014-.386-.025q-.373-.027-.744-.057l-.118-.01-.118-.01-.258-.023-.246-.023-.119-.012-.066-.006-.184-.019-.184-.019-.066-.008c-.039,0-.079-.007-.118-.013-.019,0-.038-.005-.058-.006l-.065-.008-.123-.014c-.081-.009-.164-.018-.245-.029l-.122-.015-.122-.015c-.173-.022-.347-.043-.519-.067-.037,0-.072-.009-.108-.015l-.108-.014-.245-.034-.213-.032-.107-.016-.107-.016c-.293-.044-.587-.093-.879-.142l-.187-.032-.213-.038c-.334-.061-.667-.125-1-.193h0c-.09-.018-.18-.037-.269-.056l-.118-.026-.152-.032-.236-.052-.235-.053-.235-.055c-.127-.029-.254-.061-.382-.091l-.334-.083-.331-.086L66.863,130q-.831-.225-1.651-.484a22.963,22.963,0,0,1-7.658-4.4l0,0a.017.017,0,0,1-.005,0l-.084-.081-.06-.057-.142-.14-.145-.142-.144-.143c-.1-.1-.192-.192-.287-.288s-.19-.193-.285-.291l-.283-.292c-.1-.1-.188-.2-.282-.294s-.188-.2-.281-.295l-.14-.147c-.047-.048-.093-.1-.14-.147l-.168-.172-.166-.173-.165-.174-.165-.175-.164-.175-.164-.175c-.055-.058-.108-.118-.162-.176s-.105-.116-.157-.173l0,0,0,0a37.46,37.46,0,0,1-5.734-10.263,77.008,77.008,0,0,1-4.341-14.306l0-.016v0c-.018-.107-.037-.212-.055-.317-.014-.084-.029-.169-.042-.254-.023-.138-.046-.275-.067-.414-.009-.058-.018-.118-.028-.176-.012-.078-.023-.155-.036-.232,0-.022-.006-.043-.009-.065-.016-.109-.033-.22-.048-.329s-.034-.239-.05-.359q-.049-.358-.092-.719c-.014-.108-.027-.215-.04-.322-.009-.08-.019-.16-.028-.24,0-.015,0-.032,0-.048l0-.032v-.006c-.009-.084-.018-.168-.027-.25,0-.028-.006-.056-.009-.084s0-.041-.006-.06c-.009-.08-.016-.16-.024-.24,0-.041-.008-.08-.011-.12,0-.016,0-.033-.005-.05l-.012-.108c0-.014,0-.028,0-.043s0-.034,0-.051c-.005-.047-.009-.093-.013-.141,0-.016,0-.033,0-.049s-.005-.053-.008-.08c-.009-.106-.018-.213-.027-.321-.315-5.765-.356-11.536-.249-17.307.1-5.308.321-10.614.569-15.915.123-2.5.235-5.008.362-7.512a0,0,0,0,1,0,0c.222-.77.093-2.546.241-2.995l.042-.477a59.368,59.368,0,0,1,1.445-8.694.319.319,0,0,0,.241.111,5.573,5.573,0,0,0,2.133.946,13.294,13.294,0,0,0,8.76-2.289c3.115-2.22,4.526-5.922,5.27-9.57a10.541,10.541,0,0,0,1.039,1.319c4.037,4.059,10.186,5.105,15.693,5.408,4.9.041,10.162-.728,14.187-3.707.191-.212.759-.617,1.182-1.036a8.493,8.493,0,0,0,7.752,5.161,10.846,10.846,0,0,0,7.547-2.582c-2.455,10.739,4.667,19.594,15.573,20.474a10.259,10.259,0,0,0,1.6-.048,52.508,52.508,0,0,0-2.307,5.934c-1.406,4.206-3.025,11.554-1.712,16.96a8.288,8.288,0,0,0,4.324,5.912,1.877,1.877,0,0,0,.279.366,1.968,1.968,0,0,0,1.095.559,2.129,2.129,0,0,0,.317.024,1.63,1.63,0,0,0,.694-.14c.076-.037.15-.074.221-.113.589.052,1.347.1,1.439-.358a.321.321,0,0,0,.03-.131,3.158,3.158,0,0,1,.6-.95.351.351,0,0,0,.038-.4,12.484,12.484,0,0,1,1.777-1.617C137.189,75.959,143.827,75.222,146.772,79.78Z" transform="translate(69.956 43.918)" fill="#fff"/>
    <path id="Path_260" data-name="Path 260" d="M64.473,55.158c2.263,0,4.1-3.322,4.1-7.419s-1.834-7.419-4.1-7.419-4.1,3.322-4.1,7.419S62.21,55.158,64.473,55.158Z" transform="translate(100.396 65.423)"/>
    <path id="Path_261" data-name="Path 261" d="M73.4,72.108A17.722,17.722,0,1,0,55.677,54.386,17.722,17.722,0,0,0,73.4,72.108Z" transform="translate(92.202 59.049)" fill="none" stroke="#1b1b1e" stroke-miterlimit="10" stroke-width="1"/>
    <path id="Path_262" data-name="Path 262" d="M58.685,71.842A17.722,17.722,0,1,0,40.963,54.12,17.722,17.722,0,0,0,58.685,71.842Z" transform="translate(66.545 58.585)" fill="none" stroke="#1b1b1e" stroke-miterlimit="10" stroke-width="1"/>
    <path id="Path_263" data-name="Path 263" d="M68.595,43.123l23.033,6.417" transform="translate(114.727 70.312)" fill="none" stroke="#1b1b1e" stroke-miterlimit="10" stroke-width="1"/>
    <path id="Path_264" data-name="Path 264" d="M58.825,43.161c0-1.069-4.943-1.069-4.943,0" transform="translate(89.072 68.979)" fill="none" stroke="#1b1b1e" stroke-miterlimit="10" stroke-width="1"/>
  </g>
</svg>
