<svg xmlns="http://www.w3.org/2000/svg" width="66" height="66" viewBox="0 0 66 66">
  <path id="icons8-github" d="M36,3C17.776,3,3,18.007,3,36.517A33.4,33.4,0,0,0,28,69a4.961,4.961,0,0,1-.253-1.628V61.643H23.6a5.72,5.72,0,0,1-5.239-2.818c-1.081-2.036-1.268-5.15-3.946-7.055-.795-.634-.19-1.357.726-1.26a8.662,8.662,0,0,1,4.414,3.413c1.314,1.751,1.933,2.148,4.389,2.148a31.053,31.053,0,0,0,4.65-.338,10.481,10.481,0,0,1,4.367-5.48c-10.989-1.148-16.233-6.7-16.233-14.239a13.812,13.812,0,0,1,3.674-9.03c-.759-2.625-1.713-7.98.292-10.019A11.432,11.432,0,0,1,29.348,21.1a24.589,24.589,0,0,1,16.049.006,11.424,11.424,0,0,1,8.657-4.142c2.013,2.042,1.048,7.418.28,10.038a13.807,13.807,0,0,1,3.652,9.01c0,7.533-5.236,13.083-16.208,14.236,3.02,1.6,5.222,6.1,5.222,9.485v7.636a4.987,4.987,0,0,1-.1.749A33.466,33.466,0,0,0,69,36.517C69,18.007,54.224,3,36,3Z" transform="translate(-3 -3)"/>
</svg>
