<svg id="icons8-instagram" xmlns="http://www.w3.org/2000/svg" xmlns:xlink="http://www.w3.org/1999/xlink" width="66" height="66" viewBox="0 0 66 66">
  <defs>
    <radialGradient id="radial-gradient" cx="0.372" cy="1.001" r="1.247" gradientUnits="objectBoundingBox">
      <stop offset="0" stop-color="#fd5"/>
      <stop offset="0.328" stop-color="#ff543f"/>
      <stop offset="0.348" stop-color="#fc5245"/>
      <stop offset="0.504" stop-color="#e64771"/>
      <stop offset="0.643" stop-color="#d53e91"/>
      <stop offset="0.761" stop-color="#cc39a4"/>
      <stop offset="0.841" stop-color="#c837ab"/>
    </radialGradient>
    <radialGradient id="radial-gradient-2" cx="0.161" cy="-0.012" r="0.828" gradientTransform="translate(0 -0.004) scale(1 0.666)" gradientUnits="objectBoundingBox">
      <stop offset="0" stop-color="#4168c9"/>
      <stop offset="0.999" stop-color="#4168c9" stop-opacity="0"/>
    </radialGradient>
  </defs>
  <path id="Path_2" data-name="Path 2" d="M57.346,71.955,20.7,71.99A14.7,14.7,0,0,1,6.025,57.346L5.99,20.7A14.7,14.7,0,0,1,20.634,6.025L57.282,5.99A14.7,14.7,0,0,1,71.955,20.634l.035,36.647A14.7,14.7,0,0,1,57.346,71.955Z" transform="translate(-5.99 -5.99)" fill="url(#radial-gradient)"/>
  <path id="Path_3" data-name="Path 3" d="M57.346,71.955,20.7,71.99A14.7,14.7,0,0,1,6.025,57.346L5.99,20.7A14.7,14.7,0,0,1,20.634,6.025L57.282,5.99A14.7,14.7,0,0,1,71.955,20.634l.035,36.647A14.7,14.7,0,0,1,57.346,71.955Z" transform="translate(-5.99 -5.99)" fill="url(#radial-gradient-2)"/>
  <path id="Path_4" data-name="Path 4" d="M29.833,42.667A12.833,12.833,0,1,1,42.667,29.833,12.849,12.849,0,0,1,29.833,42.667Zm0-22A9.167,9.167,0,1,0,39,29.833,9.177,9.177,0,0,0,29.833,20.667Z" transform="translate(3.168 3.168)" fill="#fff"/>
  <circle id="Ellipse_2" data-name="Ellipse 2" cx="2.75" cy="2.75" r="2.75" transform="translate(43.993 16.509)" fill="#fff"/>
  <path id="Path_5" data-name="Path 5" d="M45.808,58.632H23.824A12.839,12.839,0,0,1,11,45.808V23.824A12.839,12.839,0,0,1,23.824,11H45.808A12.839,12.839,0,0,1,58.632,23.824V45.808A12.839,12.839,0,0,1,45.808,58.632ZM23.824,14.664a9.17,9.17,0,0,0-9.16,9.16V45.808a9.17,9.17,0,0,0,9.16,9.16H45.808a9.17,9.17,0,0,0,9.16-9.16V23.824a9.17,9.17,0,0,0-9.16-9.16Z" transform="translate(-1.815 -1.815)" fill="#fff"/>
</svg>
