<svg id="icons8-linkedin" xmlns="http://www.w3.org/2000/svg" width="66" height="66" viewBox="0 0 66 66">
  <path id="Path_6" data-name="Path 6" d="M72,62.833A9.165,9.165,0,0,1,62.833,72H15.167A9.166,9.166,0,0,1,6,62.833V15.167A9.166,9.166,0,0,1,15.167,6H62.833A9.165,9.165,0,0,1,72,15.167Z" transform="translate(-6 -6)" fill="#0288d1"/>
  <path id="Path_7" data-name="Path 7" d="M12,24.833h9.167V56H12Zm4.556-3.667H16.5A4.386,4.386,0,0,1,12,16.581,4.41,4.41,0,0,1,16.609,12a4.4,4.4,0,0,1,4.558,4.582A4.414,4.414,0,0,1,16.556,21.167ZM56,56H46.833V39.319c0-4.03-2.246-6.78-5.852-6.78a5.256,5.256,0,0,0-4.963,3.648,13.223,13.223,0,0,0-.185,3.313V56H26.667V24.833h9.167v4.8a9.273,9.273,0,0,1,8.686-4.8C51.079,24.833,56,28.958,56,38.169L56,56Z" transform="translate(-1 -1)" fill="#fff"/>
</svg>
