<svg xmlns="http://www.w3.org/2000/svg" width="100.499" height="100.5" viewBox="0 0 100.499 100.5">
  <g id="other_" data-name="other " transform="translate(-1461 -1932.5)">
    <g id="icons8-console" transform="translate(1461 1936)">
      <path id="Subtraction_2" data-name="Subtraction 2" d="M97,97H0V2.694A2.551,2.551,0,0,1,2.7,0h91.61A2.55,2.55,0,0,1,97,2.694V97h0ZM5.318,19.891V91.681H91.682V19.891ZM19.942,5.317a3.988,3.988,0,1,0,3.989,3.989A3.993,3.993,0,0,0,19.942,5.317Zm-10.636,0a3.988,3.988,0,1,0,3.989,3.989A3.993,3.993,0,0,0,9.306,5.317Z" transform="translate(0 0)" fill="#faa916"/>
      <g id="Group_21" data-name="Group 21" transform="translate(23.52 43.208)">
        <path id="Path_73" data-name="Path 73" d="M24.594,34.335,15,28.853V22l16.447,9.32v5.756L15,46.67V39.817Zm12.335,6.853H64.341V46.67H36.929Z" transform="translate(-15 -22)" fill="#faa916"/>
      </g>
    </g>
    <g id="icons8-console-2" data-name="icons8-console" transform="translate(1464 1933)">
      <path id="Subtraction_2-2" data-name="Subtraction 2" d="M97,97H0V2.694A2.551,2.551,0,0,1,2.7,0h91.61A2.55,2.55,0,0,1,97,2.694V97h0ZM5.318,19.891V91.681H91.682V19.891ZM19.942,5.317a3.988,3.988,0,1,0,3.989,3.989A3.993,3.993,0,0,0,19.942,5.317Zm-10.636,0a3.988,3.988,0,1,0,3.989,3.989A3.993,3.993,0,0,0,9.306,5.317Z" fill="none" stroke="#1b1b1e" stroke-width="1"/>
      <g id="Group_21-2" data-name="Group 21" transform="translate(23.52 43.208)">
        <path id="Path_73-2" data-name="Path 73" d="M24.594,34.335,15,28.853V22l16.447,9.32v5.756L15,46.67V39.817Zm12.335,6.853H64.341V46.67H36.929Z" transform="translate(-15 -22)" fill="none" stroke="#1b1b1e" stroke-width="1"/>
      </g>
    </g>
  </g>
</svg>
