<svg xmlns="http://www.w3.org/2000/svg" width="103.5" height="88.95" viewBox="0 0 103.5 88.95">
  <g id="programming_lang" data-name="programming lang" transform="translate(-910 -1940)">
    <path id="braces" d="M8.957,45.307V44.143c7.179-.729,10.693-4.393,10.693-11.429V19.879c0-7.814,2.786-10.986,9.671-10.986h1.95V2H28.586C17.071,2,11.643,7.421,11.643,18.8V29.686c0,7.814-2.686,10.4-10.643,10.4v9.279c7.957,0,10.643,2.586,10.643,10.4V70.65c0,11.379,5.421,16.8,16.943,16.8h2.686V80.564h-1.95c-6.886,0-9.671-3.171-9.671-10.986V56.736C19.65,49.707,16.136,46.043,8.957,45.307Zm84.086-1.164v1.164c-7.179.736-10.693,4.4-10.693,11.429V69.579c0,7.814-2.786,10.986-9.671,10.986h-1.95V87.45h2.686c11.521,0,16.943-5.421,16.943-16.8V59.764c0-7.814,2.686-10.4,10.643-10.4V40.086c-7.957,0-10.643-2.586-10.643-10.4V18.8C90.357,7.421,84.929,2,73.414,2H70.729V8.886h1.95c6.886,0,9.671,3.171,9.671,10.986V32.714C82.35,39.743,85.864,43.407,93.043,44.143Z" transform="translate(909 1941.5)" fill="#faa916"/>
    <path id="braces-2" data-name="braces" d="M8.957,45.307V44.143c7.179-.729,10.693-4.393,10.693-11.429V19.879c0-7.814,2.786-10.986,9.671-10.986h1.95V2H28.586C17.071,2,11.643,7.421,11.643,18.8V29.686c0,7.814-2.686,10.4-10.643,10.4v9.279c7.957,0,10.643,2.586,10.643,10.4V70.65c0,11.379,5.421,16.8,16.943,16.8h2.686V80.564h-1.95c-6.886,0-9.671-3.171-9.671-10.986V56.736C19.65,49.707,16.136,46.043,8.957,45.307Zm84.086-1.164v1.164c-7.179.736-10.693,4.4-10.693,11.429V69.579c0,7.814-2.786,10.986-9.671,10.986h-1.95V87.45h2.686c11.521,0,16.943-5.421,16.943-16.8V59.764c0-7.814,2.686-10.4,10.643-10.4V40.086c-7.957,0-10.643-2.586-10.643-10.4V18.8C90.357,7.421,84.929,2,73.414,2H70.729V8.886h1.95c6.886,0,9.671,3.171,9.671,10.986V32.714C82.35,39.743,85.864,43.407,93.043,44.143Z" transform="translate(912 1938.5)" fill="none" stroke="#1b1b1e" stroke-width="1"/>
  </g>
</svg>
