<svg xmlns="http://www.w3.org/2000/svg" width="41.77" height="56.694" viewBox="0 0 41.77 56.694">
  <path id="scroll-down" d="M-54.267,132.58a15.3,15.3,0,0,0-15.288,15.285V173.99a15.3,15.3,0,0,0,15.288,15.285h11.2A15.3,15.3,0,0,0-27.785,173.99V147.865A15.3,15.3,0,0,0-43.07,132.58Zm0,4.463h11.2a10.744,10.744,0,0,1,10.821,10.821V173.99A10.747,10.747,0,0,1-43.07,184.815h-11.2A10.75,10.75,0,0,1-65.092,173.99V147.865A10.747,10.747,0,0,1-54.267,137.044Zm5.564.437a1.866,1.866,0,0,0-1.833,1.887v3.982h-2.492l4.365,7.779.867-1.541,3.512-6.238H-46.8v-3.982a1.866,1.866,0,0,0-.55-1.345,1.866,1.866,0,0,0-1.348-.542Zm-13.208,15.992a1.868,1.868,0,0,0-1.734,1.953,1.868,1.868,0,0,0,1.913,1.778h26.124a1.866,1.866,0,0,0,1.652-.92,1.866,1.866,0,0,0,0-1.891,1.866,1.866,0,0,0-1.652-.92H-61.733Q-61.822,153.468-61.911,153.472Z" transform="translate(69.555 -132.58)" fill="#1b1b1e"/>
</svg>
