<svg xmlns="http://www.w3.org/2000/svg" width="66" height="54.996" viewBox="0 0 66 54.996">
  <path id="ico_twitter" d="M769,6158.6a23.467,23.467,0,0,1-7.551,2.2,14.821,14.821,0,0,0,5.672-7.584,21.666,21.666,0,0,1-8.491,3.09h0a13.418,13.418,0,0,0-9.842-4.306,13.793,13.793,0,0,0-13.615,13.965,14.319,14.319,0,0,0,.344,3.116h0a37.4,37.4,0,0,1-28.067-14.491,14.186,14.186,0,0,0,4.124,18.451,8.591,8.591,0,0,1-5.945-1.581,13.415,13.415,0,0,0,10.5,13.646,10.521,10.521,0,0,1-5.671.446c.432,4.1,6.05,9.474,12.171,9.474a23.824,23.824,0,0,1-19.634,5.8A40.147,40.147,0,0,0,724.3,6207a38.365,38.365,0,0,0,38.105-40.782c0-.026,0-.052,0-.078v-.38a23.852,23.852,0,0,0,6.6-7.156Z" transform="translate(-703 -6152.004)" fill="#4096ea"/>
</svg>
